<mxfile host="app.diagrams.net" agent="Mozilla/5.0 (Windows NT 10.0; Win64; x64) AppleWebKit/537.36 (KHTML, like Gecko) Chrome/133.0.0.0 Safari/537.36" version="26.0.12">
  <diagram name="Page-1" id="RLfwWnsSja029ESbYqKZ">
    <mxGraphModel dx="3000" dy="2791" grid="0" gridSize="10" guides="1" tooltips="1" connect="1" arrows="1" fold="1" page="0" pageScale="1" pageWidth="850" pageHeight="1100" math="0" shadow="0">
      <root>
        <mxCell id="0" />
        <mxCell id="1" parent="0" />
        <mxCell id="CrdlNod6DZvfMOvalICT-68" value="" style="rounded=1;html=1;labelBorderColor=none;textShadow=1;" vertex="1" parent="1">
          <mxGeometry x="136.5" y="-890" width="797.5" height="495" as="geometry" />
        </mxCell>
        <mxCell id="CrdlNod6DZvfMOvalICT-20" value="" style="shape=image;verticalLabelPosition=bottom;labelBackgroundColor=default;verticalAlign=top;aspect=fixed;imageAspect=0;image=data:image/png,iVBORw0KGgoAAAANSUhEUgAAAB4AAAAeCAYAAAA7MK6iAAAAAXNSR0IArs4c6QAAAg1JREFUSEvFlrtLHUEUhz8hEIvEwiIGH6WiXSq7aBQFhUAQVKwCChJIZ7TxPxDMw04QTUgKISakEB+NhZhY2Ak2GtKE+CABC1GUgJDsD+bCMu7u7Mz1MbDsvbPnzHfmzJlzTgk3NEpuiEsx4E5j9HKI8aHgh8CaAer3N194KHgJKOx4EXh8HeA6YCcG+gc0WHNOO0J2/B54aq38Dhhw0mICvuBK4Cdwy4KcA1XAn7xwX/BLYDhl8TFg9CrAd4E9QO+kcQxUAGd54PaOHwD1xm1yq9ynd7V533Ys+hfYB34BB8ZQGatHAblZ0I+De6Po/JjH2iJkeoDP0o+DO4CgLJTTEF27ZuCrDdb/PmDWMijnupliOoJuYCHJ1YW5y4Yr6JTl1uOmpV2ny4IfAi3Alu2PrHtcLFyR3Qr8SDoEVwIJhQvWZK5U4uG7wEqNOqNSzwh7A7zI0nGBG6PA2PCESnzbVKxUVRdYVr8KAEulBthN03WBvwBdgeDnUe6eDAX/Bu6lKJ+Y+Tsp3+eBJyHgWuB7iuJqrBn4ADxKkDsFyqNSqax1YWS5Wh3FjKWhCB+JKtWUNf8MGE8ome3Aii/4bdRt9MeUtICMUWJIGgom6bTFPr5OaxyydjwHqIwdRc8QoL4qz5CxE0AZ8AlQufVy9f2ogA+aXaiQ+ww1DvLOtGkMvMA+IG9Z1z32XjCvwn8R3FIfWJsPkAAAAABJRU5ErkJggg==;textShadow=1;" vertex="1" parent="1">
          <mxGeometry x="1576" y="-668" width="82" height="82" as="geometry" />
        </mxCell>
        <mxCell id="CrdlNod6DZvfMOvalICT-49" value="" style="group;labelBorderColor=none;textShadow=1;" vertex="1" connectable="0" parent="1">
          <mxGeometry x="442" y="-679.25" width="86" height="118.5" as="geometry" />
        </mxCell>
        <mxCell id="CrdlNod6DZvfMOvalICT-19" value="" style="shape=image;verticalLabelPosition=bottom;labelBackgroundColor=default;verticalAlign=top;aspect=fixed;imageAspect=0;image=data:image/png,iVBORw0KGgoAAAANSUhEUgAAAB4AAAAeCAYAAAA7MK6iAAAAAXNSR0IArs4c6QAAAqhJREFUSEvFlkuojVEUx39XREJEQlEmHqUIZaCIMjAiJYk8S8QA6ereCHnnEWUgJZKBMODeoRIDSSkMGZFSYuCVlOf+19pa9tnfOef7OM6enM7e6/v/13utDtp0OtrEy98QLwAGAL1VlK9CPAU4C8w2wgfARuBxGQXKEI8JFh4BVkKNp34CV4CdwMtmFGiGeDDQDWwD+hvoV+AU8NnI5HKdeL8f+FhPgXrEfYP264EDwAgHch9YDrywu9Ems9Z54i2wCzgffr/lFCgiXgQcBSZmPvpugAJ+494nAyeAhe7uafBKJ9CT4qTE04J1Z1ziSP5uINgMzA8W7QOGGcgnU+448MUBz7UwCCuee8AWn4CeeA1wwQk/t7jecHfDgUPABnf3ynLgEqAk0xHuCpMd62QVjotRIN7vDR/ucUKK4W7gsgOMzznPPAG2A7eBPsDqICzMcQ5THtPdH2WREkd5AW4F7mTiLXCV2Cj3pnhOCOU1KSNfijh+rw61A3iWAA40V6uGVQn+qKROOk9WIhbgD+Ccueu1MYy00lH36udYpeiq4K13LlSViSOusljlNsgyPjYQb+1vkn9JnAkfD4GuUIq37LHlxIq5msl1syyWVMuJ5yUZL2IlleIbe0CNMr6BFJVTzq3+LiVWb1c3U1LF81+IvVKaZppqh9O4e4uXAlcbmZd5Ty2OIkvM8vHuG3EoF2oG+gwr+DklFEiJp4ZBchrQsIhHg0aWP4oXRWNxsdWpWl+jE4k1s+XSddar9Z0yXmPxZgrSaBHYZO1OU6noaOmbbiWlbUVHi4DKSbtZqUXAkwy1XqxB4VtilPkQwjPE/sTV52Bw7ft6rmpm54rfa64eA5ZlAFuy7KU8M21LmWUPLV9vUwVkuabVtUbZl3sv4+oq+IXftI34F9TNlB9EL2ONAAAAAElFTkSuQmCC;textShadow=1;" vertex="1" parent="CrdlNod6DZvfMOvalICT-49">
          <mxGeometry x="2" width="82" height="82" as="geometry" />
        </mxCell>
        <mxCell id="CrdlNod6DZvfMOvalICT-40" value="&lt;font&gt;PACKAGE&amp;nbsp;&lt;/font&gt;&lt;div&gt;&lt;font&gt;SELECTION&lt;/font&gt;&lt;/div&gt;" style="text;html=1;align=center;verticalAlign=middle;resizable=0;points=[];autosize=1;strokeColor=none;fillColor=none;labelBorderColor=none;textShadow=1;" vertex="1" parent="CrdlNod6DZvfMOvalICT-49">
          <mxGeometry y="77.5" width="86" height="41" as="geometry" />
        </mxCell>
        <mxCell id="CrdlNod6DZvfMOvalICT-50" value="" style="group;labelBorderColor=none;textShadow=1;" vertex="1" connectable="0" parent="1">
          <mxGeometry x="626" y="-669" width="97" height="114" as="geometry" />
        </mxCell>
        <mxCell id="CrdlNod6DZvfMOvalICT-18" value="" style="shape=image;verticalLabelPosition=bottom;labelBackgroundColor=default;verticalAlign=top;aspect=fixed;imageAspect=0;image=data:image/png,iVBORw0KGgoAAAANSUhEUgAAAB4AAAAeCAYAAAA7MK6iAAAAAXNSR0IArs4c6QAAAh1JREFUSEvt10voTVEUx/HP32tiIBSSopQ8JgZMPIqBgWKmMEAohZBMJHkkmYnyKI8irzIwY2BCxMCAUh4lYeI1UDKQ5HFW7fPv/G/n3nvO0d/fwK47OOes3/rutdfaa+/bY4BGzwBx/Qf/tZXvtNSDsBYrsRDxXGX8xC1cxHn8KhN1Ah/EriqkDjb7sL8OeDYeJMFTXMOPipMYjGWYmqKdhYet2nYRH8NmfMc4fKoIzc1G4x2GInxtqQKOybxNwOtYUhOam9/AYrzH+NZcl0U8H3eSOorrXEPwepxJ2rm4X/RTBj6aLe3WlNOR+NIQPAofETk/nPnZ0Qk8DC+zmU5IOTrVEJrLNmIMXqdi+5Z/KEY8HDez35w/hLWT38MifA2DIjgaxeV+guZul+NqKzg2+95+BkczCU6fiIvgR4gii22wDWNrTuhD0sdWikKdmfRdwdPwPBnvzirzQE3wdhxJmnm4WxU8BS+S8QpcqQnegNNJE50vuliMrhFfwp7UMo9jaU1w9OZok09SqvKDoiu4JqeyeSl4Jw5VdtHMMFYhDo0+VR0F9RhDmvnsqorGMQOvWsHxvA5nCy7epHbX1WuJwSRMLLxfjQv5c+shsSBdW/LvvTlpQG5tSHF9uv3PgSPPcdXJx6asa51sEG1I4mQ6UdBOx7N2Ecf7VVkuJqfrTtwSPzcEj8gKaQ3iXI6jtje/ZcXVkFFfNmB/YX4D5uxjH/YzlT4AAAAASUVORK5CYII=;textShadow=1;" vertex="1" parent="CrdlNod6DZvfMOvalICT-50">
          <mxGeometry width="81" height="81" as="geometry" />
        </mxCell>
        <mxCell id="CrdlNod6DZvfMOvalICT-41" value="TRANSPORT" style="text;html=1;align=center;verticalAlign=middle;resizable=0;points=[];autosize=1;strokeColor=none;fillColor=none;labelBorderColor=none;textShadow=1;" vertex="1" parent="CrdlNod6DZvfMOvalICT-50">
          <mxGeometry x="5" y="88" width="92" height="26" as="geometry" />
        </mxCell>
        <mxCell id="CrdlNod6DZvfMOvalICT-51" value="" style="group;labelBorderColor=none;textShadow=1;" vertex="1" connectable="0" parent="1">
          <mxGeometry x="788" y="-679.25" width="118" height="130.5" as="geometry" />
        </mxCell>
        <mxCell id="CrdlNod6DZvfMOvalICT-22" value="" style="shape=image;verticalLabelPosition=bottom;labelBackgroundColor=default;verticalAlign=top;aspect=fixed;imageAspect=0;image=data:image/png,iVBORw0KGgoAAAANSUhEUgAAAB4AAAAeCAYAAAA7MK6iAAAAAXNSR0IArs4c6QAAAcxJREFUSEvF1s2rTVEYx/HPJSMDL4WSARl4l4wVJlJMTG7pJsoExQCl/AMMSJSXAUVKmZjIrTu5dEdmGCBKUQaSxMyErFXr1nGcs/dz9r6ns2q367ee5/fda+/1PGuPGdEYGxFXFfgIVuNjut8tDxjVatdTBZ7GbsxgZ3GKaq3At3G0rHhNcYpqrcCncLU47MUUTuJaQGsFXoZ3Cb4EX7AJ84Pa9zpy3a4+gEfF5AEmENUq2XXgnPwQ4/iFhfgzgNYXHgEfRF5tHuvwPr3uqNYKvCuV09PikMvrWbqiWivwYmwrDi/xA1EtBF6Ew6lcltbtyIbzeaffw8+c3/mNj+FmQ9No2nHc6gZn8UbUoWFcT/B+PG5oGE3bh8nuFW9NzeFV1KFh3Ga87gbPK60xt8phjG9pD60oDei/8/gSzgyDigs4P+vd3bnW4+2QwPmn4lM/cNav48Qcw6/gdKdnr169AM+xfY7g2WsHfteB8/xKvEh1vbwl/Cu2pDeY7/+MqtNpFe5gT0P4k1QluRt+7pUfORbP4eKA8LO4XJUTAXcegVH+7PHZNz4C3pD+QN5EiSVuY11ZRsDZ6xDWBuEfUuz9utgouM5n4PmRgf8CZxplH8GJX18AAAAASUVORK5CYII=;textShadow=1;" vertex="1" parent="CrdlNod6DZvfMOvalICT-51">
          <mxGeometry x="24.75" width="68.5" height="68.5" as="geometry" />
        </mxCell>
        <mxCell id="CrdlNod6DZvfMOvalICT-42" value="ACCOMADATION&amp;nbsp;&lt;div&gt;AND FOOD&lt;/div&gt;&lt;div&gt;(OPTIONAL)&lt;/div&gt;" style="text;html=1;align=center;verticalAlign=middle;resizable=0;points=[];autosize=1;strokeColor=none;fillColor=none;labelBorderColor=none;textShadow=1;" vertex="1" parent="CrdlNod6DZvfMOvalICT-51">
          <mxGeometry y="75.5" width="118" height="55" as="geometry" />
        </mxCell>
        <mxCell id="CrdlNod6DZvfMOvalICT-53" value="" style="group;labelBorderColor=none;textShadow=1;" vertex="1" connectable="0" parent="1">
          <mxGeometry x="6" y="-662" width="58" height="84" as="geometry" />
        </mxCell>
        <mxCell id="CrdlNod6DZvfMOvalICT-15" value="" style="shape=image;verticalLabelPosition=bottom;labelBackgroundColor=default;verticalAlign=top;aspect=fixed;imageAspect=0;image=data:image/png,iVBORw0KGgoAAAANSUhEUgAAAB4AAAAeCAYAAAA7MK6iAAAAAXNSR0IArs4c6QAAAbNJREFUSEvt1jtrFUEUAOAvBtRGIjYBCy20sBBsgoUIEWwsRCyCaSIKNkbyC2zUQvwFKoKCohaKEAgp0ggGQopgYWEjJIUWQhpRbFQQ3YFZWOY+9hnS5HZ3duZ8u2fPnJ0R2/Qb2SZXG3gG//Cyyc03hQP6PIKX8aIu3gQ+h0WMRuwvzmOpDl4XPoll7E2QX5jEWlW8Dnwke7L32D8g+PcsExPYqIJXhcfj0xwqCfoFISubZXgVeB9WcbwsWLz+Eafwc9j8Mng33uJ0RTSftoKz+DNo3TB4F+ZxoSaaT1/AxbjXe0IMgx/jWkM0X3Yfc/1iDIJv4m5LNF8eYt1LY/WDi12pI1tPd0vhtCt1Bfd0tyJ8LCuGD1la9nSlJXF+Z8V6Ap/CeBGexYMtQvOw1/EohUPTD1V8MM66isMtb+QznsYYX/EEIe1Dv8fvYuNvY4cPypk62ynM3YHzjD0rvLd8LNTDlT4p7TTVdzLgdoKE/7d24HhM6qyqtzzVr3Cpz3u7gYfJ+KCu9xrTdffxUUwlJ8pvCFX9Iwk2Fqv6QGE8nDzfYL0u3KZjla4tO3OVBmg64T81F1Af8xlKRAAAAABJRU5ErkJggg==;textShadow=1;" vertex="1" parent="CrdlNod6DZvfMOvalICT-53">
          <mxGeometry width="58" height="58" as="geometry" />
        </mxCell>
        <mxCell id="CrdlNod6DZvfMOvalICT-52" value="HOME" style="text;html=1;align=center;verticalAlign=middle;resizable=0;points=[];autosize=1;strokeColor=none;fillColor=none;labelBorderColor=none;textShadow=1;" vertex="1" parent="CrdlNod6DZvfMOvalICT-53">
          <mxGeometry x="4" y="58" width="54" height="26" as="geometry" />
        </mxCell>
        <mxCell id="CrdlNod6DZvfMOvalICT-86" value="" style="edgeStyle=orthogonalEdgeStyle;rounded=0;orthogonalLoop=1;jettySize=auto;html=1;labelBorderColor=none;textShadow=1;" edge="1" parent="1" source="CrdlNod6DZvfMOvalICT-46" target="CrdlNod6DZvfMOvalICT-85">
          <mxGeometry relative="1" as="geometry" />
        </mxCell>
        <mxCell id="CrdlNod6DZvfMOvalICT-46" value="" style="shape=image;verticalLabelPosition=bottom;labelBackgroundColor=default;verticalAlign=top;aspect=fixed;imageAspect=0;image=data:image/png,iVBORw0KGgoAAAANSUhEUgAAAOEAAADhCAMAAAAJbSJIAAAAhFBMVEX///8AAABJSUnc3Nz8/Pw5OTkzMzPw8PBlZWXq6urt7e319fUrKyvGxsb5+fm8vLzl5eVQUFBbW1vQ0NCwsLCEhISZmZkjIyOPj49zc3M9PT0VFRWrq6tgYGDCwsLW1taioqJ7e3snJycQEBBDQ0McHBwTExOLi4t/f39ra2udnZ11dXVcvCr1AAAGZElEQVR4nO2c7ZKiPBCFjaIiKCjixzjjgKPOzjj3f38voCiQDgKi6XrrPD+2ai3j9tmE9Ec6dDoAAAAAAAAAAAAAAAAAAAAAAAAAAAAAAAAAAAAAAAAAAEDS+5vNujfMiW6D2mYiinzoNqldnL6kUIx0G9UqPVmgcHUb1SryIhXipNuoVvkgFC50G9UqS0KhqduoVvkhFPZ1G9UqW0KhMHRb1SYDSqGt26pG2P5iHcgfUwJFTxq83Johc92jxLOvC+vPopyF7BB7yeDN8GXWNmA0PtvuWZnP/O2KFCiOnp+Na9x0B2IsMRUoxCpdqRNyj7mx/UwHr6+f8ZU4zO4ncWDt+F/l+pKZ/HCir9pe5qOBde+f0oOVj653tj8WlYg09vL/FX2WEofF9OFYTV/MYV/4gKPEIenyGjNg9yxKM/go3Lab1gVyk2jMWhcYORJOcev8CQKFmOqWlSF8ikIivtWGe9/cBnCaw2EN31eZN92qcny2L5CbRzxVsnq/Gg/Gq2IAQyNlj7r5vWdxd+EGozjIdkaB+9O993V+1VSnNGrrhsUpmYalIjmWGqmy9gVvQjrvuaccMePk7a+odpuB+phpopj4Fc8zjRG9gyxLB1GlYo4PYcIbZevxXmASUEUc7yUG1yWgBHbvLzeL2nE+7w7TALVteFWKnzYxcvN0c+tDbaWzatVdm8i9GE4i8RSOq8ZdQ7lkdXiqsU2wiCmsHncRC4Bd0EZkiHVaEeQT1J+nmdoQeUOc1RovPYpH50mWNuThZSb/ALOGG3mR1l1lO+bLVD5/qVuCmErLdB26wdDRHYI7w+ncXy5kgX+1f4oM+iKX4+00+kZroSwEz2v/GH2KmvCmayKtjdKmfmEnzCw2J0H+NbskhfafrETFWm3SLv9N72uVesfTcRwz2CazbG1uybximcboyjVKSvn5RydOOzaXWbw9smEndhLj67dKiq71fGt7lBRa8jvpj1gc0ifTFK5j2/ZonTyrPTG4fqukDMJP4Ti3NdjfYrpMF66ZuvJlvPayCm1FQwNLhfnMwI3+3ksbhK4KIweYV9hRb1z8FOab8rZxEO5dii9XhaN9UWFJ6e1VkgqoFea20mkyff7FzKtCP57pnEJ1Ubn7Mk151Apz9dxQ/EZ/Wu/n7SdV6CYVtZxCtbvgrdC5bKNv57qiKb7fIy4TzVyh2h9mD8YCsZ9HBKez6zMvX9kkIUBOobp9ip/C7M6wuH0cz6Up/GnM2Z/kFKrXBD+FmfZf5114ZsTWPCTr0syltjmF6sCUn8LjrcrmXid0Ko5WmULFqQBPhZkmg+2tItWNc4StUmFJQ4cuf6j20CK8fulnc21R+3yPxJ3G2Zg1m1vQhzQJ6xeoofDVJm3Vo5TZrHpJaGsbNv6UNn3X7y2UCjUp/YW+RkXD3XmKHtL6WblUrhuYi6U/nw51F04NYxi4H9JG361bWnGKmcWKV4vpoqiwdkFXyvCZnZLKhbKaLsyQqnbMbmAO5Zb1ek+ifDTDqastZidZWOvSz+jRNfB8iIDkt8ZwOXjQVSJVQ4TNYeXBROVV93mFDBXgVD1wIMb+e6qxjTAIhRVdBlUK5tgURXZCV5FICeTYuNdxyILufa9GdqZycxVn6HOHXfkghywh1j99fAmKHP2r7CjRVeT1LFv3HGV+96tqWgjUOTTHZSoH3zfe5rJ7cyZmyYiB7pxJpiThj9n8m2cTdWuiPiA/Uyciegklh38px8PfyXdd11/+Hd7vf53ZazNavn2YwKtl6O5dhAYcOV0pUVaRHoJTj+lzbueFumVlqLDPNKB+19HzMErK343hdatkVPHqfQ143QN+gkRuAqMopcILImrA7fZhjPXIhfVibslvBmMKEgeuugOowNh18l0KHF8aEWNlQzfT6RhVXm0ixHfycpNsSfiLqcDcmxUucfPk7qsIDmmyO7+u1DHHMtSFVOL7LeDqLUsWa/9f5mqb5fEXGElM5BxyGboRhPRMLoN8mmskheE+a4Gdjh2av/Lrusibe3t5dLBe+Mzf9aVAPngRPG/gNcahFLKrUzyCQcV0LOvajaFyD2aFmAeh3n3J74TwEah+J04J7uNQ1VSOZe3mEO6iy6+q/RDS6eL+/7VIIz63mTeyz2Y7djeZAQAAAAAAAAAAAAAAAAAAAAAAAAAAAAAAAAAAAAAAAABc+A8oNUqMSGPyOgAAAABJRU5ErkJggg==;textShadow=1;" vertex="1" parent="1">
          <mxGeometry x="1225" y="-1081" width="170" height="170" as="geometry" />
        </mxCell>
        <mxCell id="CrdlNod6DZvfMOvalICT-56" value="" style="rounded=0;html=1;rotation=90;labelBorderColor=none;textShadow=1;" vertex="1" parent="1">
          <mxGeometry x="74" y="-703" width="365" height="172" as="geometry" />
        </mxCell>
        <mxCell id="CrdlNod6DZvfMOvalICT-16" value="" style="shape=image;verticalLabelPosition=bottom;labelBackgroundColor=default;verticalAlign=top;aspect=fixed;imageAspect=0;image=data:image/png,iVBORw0KGgoAAAANSUhEUgAAAB4AAAAeCAYAAAA7MK6iAAAAAXNSR0IArs4c6QAAAoBJREFUSEvFlkuIjlEYx38jbNxiJ6XZuRTJrVBjSq5TZpLrxn1vZMNs5bZxWRNJzWRmMhqJ5BYh1wUWbCnZ0Cg2CO9fz9HrdM57zpf0ntX3ved5/v/z3J8majpNNfHSKHEb8A245j14FTAO6Mk1pBHiVuCWAT8G9gIjgf3AXPveAtzNIc8lHg68LCyakgB9Dcwwr1SKxojHANuACaY9HViXYwlwHnhlsh+AM8BnXzdGvAM4lUmUEttu5H/JxYi7gAMpxMz7fcDhXIslfDAA/MbcPzqTVGLZxCOAs8AmD3w3cMIyuRtYU7o/bUk1L/AgyW71E8539SKL7dQAwHhgyL4r0Xrt9yNAesOAk8DmgK6STXlz392ViZcDVyDaVNqBQVM8Vjyi0x4yswB9a554CMyKhOFnUeNLXC8oE6v7XK6I3Regr7BqkgHIwtXAJdM5DuxKxH4pcF0yvqvvFe1wYWbiiEhx15E3Lib0HpSxfeLZwNMMYrVMPfA70Fwk2nNATafqzCk89CwUY32bDyhOVecToLiqtFQBskSgqaOMfxIjVtYtSCCsBK42EFcHJ2xl/+/jZ7UDjHEfBfbYZQcwAPwAbgDvrbZHVTxcWX3TJ15rWRvT8+P6AlAHOwSoxeqssJIMYaicxHHBJ9b/qgaibrbTvFSO60abSNKfCLwLsFY2ECevhDkHbAgAyGrNZY1Md1RGIv9qfdkfLtpKtqRapgOLDYlYGDRvPwKTAwLZQ0K6tY3F2hYBf/WZBqxP1Le7/qfVx+dQwql8/vuyFzJuMXDbLtRWtd5qQh2x9VZ1qhX4To5nctdbh7UMGAv0e+BqDMrsVOf7o9YocY4xWTK1Ef8CfPd5H1dddocAAAAASUVORK5CYII=;textShadow=1;" vertex="1" parent="1">
          <mxGeometry x="219" y="-789" width="56" height="56" as="geometry" />
        </mxCell>
        <mxCell id="CrdlNod6DZvfMOvalICT-17" value="" style="shape=image;verticalLabelPosition=bottom;labelBackgroundColor=default;verticalAlign=top;aspect=fixed;imageAspect=0;image=data:image/png,iVBORw0KGgoAAAANSUhEUgAAAB4AAAAeCAYAAAA7MK6iAAAAAXNSR0IArs4c6QAAAZxJREFUSEvt1r9LVlEYB/DPmxGBLoJLJII/wN0hoaVcwlpranD0Bzg4lUMtQTQWtaT/gEPQpuVkgUM6ONgYJYg/lobGKMLOiSu8XN733tPLhfdFPOO93+f5nud7nu9zTk2bVq1NvDqKeABDBUr8xA5+ZZhLGMPlgphv2K//n6/4Cg4pVWIJs1mi15gpObITXA2441NcnvgmNhLO/SMiNq4PIeZGQsxEhv0HPSc+l7pZz5yd5rqGrQRrvMOdDLcWYm4nxIyHmO1mPu7CMoZLJtcLvM8wk1gomVxfMY0/zYgTNl4NpGMuiVSpn2M9V3s37mEKMc8XvMTnRhrlK26luWLeUWyirwHJUzzKf69iVvdgF4MFp38/bG6l6FpsZWQu4llJy8Wrtr9q4tU6TxfxjyDaqrJrMTbZrQSTFQ6QVqR+hfkE4t4waH5UWXGs5FMJ8dtgq7tVn3HM9ySMw8dNyPcQbfq9iDg+9o4SZIsPvLkc7kH2ADy11W+8wUMclPk4/v/f5219zou4HhS4kE2uaKOGq2NmdYLK1UDaVvFf7JhiH3m04hEAAAAASUVORK5CYII=;textShadow=1;" vertex="1" parent="1">
          <mxGeometry x="213" y="-567" width="62" height="62" as="geometry" />
        </mxCell>
        <mxCell id="CrdlNod6DZvfMOvalICT-24" value="" style="shape=image;verticalLabelPosition=bottom;labelBackgroundColor=default;verticalAlign=top;aspect=fixed;imageAspect=0;image=data:image/png,iVBORw0KGgoAAAANSUhEUgAAAB4AAAAeCAYAAAA7MK6iAAAAAXNSR0IArs4c6QAAAgNJREFUSEvF1kuoTlEUwPHf9RwomTLheiYTGRAGHhOmlBliQspAlIGZFANiIAMpXY+RiaEoISmlPEoyQB5DipFC4SydT8dxHvt899Rdk6/v7LXWf6+111p7j5ggGZkgrmHAc7EC8/ALb/EY77sEkQoOvb04iEU1gJc4hYv5hhr3kQKeg+tYmRjRfWzFpyb9NvBi3MXsROhA7QPWIn4rpQk8E08x2hE6UH+C1fhWZd8EvowdNdB3WXGN5Wu7EAVXJadxqAt4FR42RHovO4L1+Xocxboa3Z9Yglfl9bqIz+BAD+BwcRgnU8HPsawn8C1sSgV/xqyS8obC/y954cWn5SXdOyW7N1iQCv6OqSXlttYbqMc0K8rXLNUzUsGvMb+niKOw/pt2dVHcxsaezvhm1iGbUyM+m428/T2Bo6Kjsv+Ruoj76uOALcwGURxdEjiUXmBpTdSpkyuGS7Eb/rprqtSd2Zy+1JDulKWok3J7/bFra5EHWJNCqNC5gth8pbSBY84+w/SO8I/5jI5BNBQ4jHbnr4pU9o/8Ln7UZNAW8cD2PPYkkuMqvdqmmwqegmtZ2re0ODyBI23QlOIq+picX/7baxxf6JCV1qouMyJD57CvsBCX/bGsQ46mvC4HdqmpLm8gxulxTMI23EhJb1FnWHD4iBfoNMSjobOMB9wZ1lfE4wL/Bm6uVh9GagDrAAAAAElFTkSuQmCC;textShadow=1;" vertex="1" parent="1">
          <mxGeometry x="219" y="-669" width="56" height="56" as="geometry" />
        </mxCell>
        <mxCell id="CrdlNod6DZvfMOvalICT-36" value="Offer-Wise&lt;div&gt;Selection&lt;/div&gt;" style="text;html=1;align=center;verticalAlign=middle;resizable=0;points=[];autosize=1;strokeColor=none;fillColor=none;labelBorderColor=none;textShadow=1;" vertex="1" parent="1">
          <mxGeometry x="209.5" y="-736" width="75" height="41" as="geometry" />
        </mxCell>
        <mxCell id="CrdlNod6DZvfMOvalICT-38" value="State-Wise&lt;div&gt;Selection&lt;/div&gt;" style="text;html=1;align=center;verticalAlign=middle;resizable=0;points=[];autosize=1;strokeColor=none;fillColor=none;labelBorderColor=none;textShadow=1;" vertex="1" parent="1">
          <mxGeometry x="208.5" y="-619" width="77" height="41" as="geometry" />
        </mxCell>
        <mxCell id="CrdlNod6DZvfMOvalICT-39" value="Category-Wise&lt;div&gt;Selection&lt;/div&gt;" style="text;html=1;align=center;verticalAlign=middle;resizable=0;points=[];autosize=1;strokeColor=none;fillColor=none;labelBorderColor=none;textShadow=1;" vertex="1" parent="1">
          <mxGeometry x="198.5" y="-501" width="97" height="41" as="geometry" />
        </mxCell>
        <mxCell id="CrdlNod6DZvfMOvalICT-58" value="" style="endArrow=classic;html=1;rounded=0;exitX=1;exitY=0.5;exitDx=0;exitDy=0;labelBorderColor=none;textShadow=1;" edge="1" parent="1" source="CrdlNod6DZvfMOvalICT-15">
          <mxGeometry width="50" height="50" relative="1" as="geometry">
            <mxPoint x="99" y="-616" as="sourcePoint" />
            <mxPoint x="163" y="-633" as="targetPoint" />
          </mxGeometry>
        </mxCell>
        <mxCell id="CrdlNod6DZvfMOvalICT-59" value="" style="endArrow=classic;html=1;rounded=0;exitX=0.5;exitY=0;exitDx=0;exitDy=0;entryX=0;entryY=0.75;entryDx=0;entryDy=0;labelBorderColor=none;textShadow=1;" edge="1" parent="1" source="CrdlNod6DZvfMOvalICT-56" target="CrdlNod6DZvfMOvalICT-19">
          <mxGeometry width="50" height="50" relative="1" as="geometry">
            <mxPoint x="366" y="-571" as="sourcePoint" />
            <mxPoint x="416" y="-621" as="targetPoint" />
          </mxGeometry>
        </mxCell>
        <mxCell id="CrdlNod6DZvfMOvalICT-60" value="" style="endArrow=classic;html=1;rounded=0;exitX=1;exitY=0.75;exitDx=0;exitDy=0;labelBorderColor=none;textShadow=1;" edge="1" parent="1" source="CrdlNod6DZvfMOvalICT-19">
          <mxGeometry width="50" height="50" relative="1" as="geometry">
            <mxPoint x="539" y="-612" as="sourcePoint" />
            <mxPoint x="623" y="-618" as="targetPoint" />
          </mxGeometry>
        </mxCell>
        <mxCell id="CrdlNod6DZvfMOvalICT-62" value="" style="endArrow=classic;html=1;rounded=0;exitX=1;exitY=0.5;exitDx=0;exitDy=0;entryX=0;entryY=0.75;entryDx=0;entryDy=0;labelBorderColor=none;textShadow=1;" edge="1" parent="1" source="CrdlNod6DZvfMOvalICT-18" target="CrdlNod6DZvfMOvalICT-22">
          <mxGeometry width="50" height="50" relative="1" as="geometry">
            <mxPoint x="727" y="-615.46" as="sourcePoint" />
            <mxPoint x="824" y="-615.46" as="targetPoint" />
          </mxGeometry>
        </mxCell>
        <mxCell id="CrdlNod6DZvfMOvalICT-64" value="" style="group;labelBorderColor=none;textShadow=1;" vertex="1" connectable="0" parent="1">
          <mxGeometry x="961" y="-680.75" width="79" height="120" as="geometry" />
        </mxCell>
        <mxCell id="CrdlNod6DZvfMOvalICT-21" value="" style="shape=image;verticalLabelPosition=bottom;labelBackgroundColor=default;verticalAlign=top;aspect=fixed;imageAspect=0;image=data:image/png,iVBORw0KGgoAAAANSUhEUgAAAB4AAAAeCAYAAAA7MK6iAAAAAXNSR0IArs4c6QAAAb1JREFUSEvN1k3ITUEYB/DfK18lJcmOhCyUKCs7lGJhQcpGoXyUlJ0US5LsUD42rFCilLKwYMVCCYWVfKWUkgUbCTN1jt6ue95nzts5XbOd5/x/M819Zu6YEY2xEbkmA0/BNiyvFv0SN/C7zSbawmtwBcsGkFfYiceleBt4Pe5iekP4d2zAoxK8FJ6F95gbhH7AUvyI8FJ4Ly5FYdV8Pv+bUW0pfAH7o7Bq/jQOR7Wl8EXsi8Kq+fM4ENWWwkdxPAqr5o/gVFRbCueefRGFVb28JLXWm6i2FM45l7ErCDyDQxGa59vAM6obanNDcF7YHvzqGq4XugNbxvX0J1zD7RKwrmmz4za5Ye1/Dy/A1nQjrUiPxKLUWlMHtvQz/fDepiN4hlv4GG052vFKnMSmKGhg/k51e+VXa+iYCM431TlMa4nW5fmh2J2e0KvDvm+Ct+P6JMHxn+XW2oh7g1nD4Plppe8wswM4R3zBQuT3+u8YBp/FwY7QOuZYOrITEfw5ne28juEnWD0RvBivO0bruNn41nRz5T9zD3uCc2s+b4LX4n5P8Do8aILnYFVP8FN8bYJ7Mv+Nja7M3hYyMvgPElg8H/XErXYAAAAASUVORK5CYII=;textShadow=1;" vertex="1" parent="CrdlNod6DZvfMOvalICT-64">
          <mxGeometry width="79" height="79" as="geometry" />
        </mxCell>
        <mxCell id="CrdlNod6DZvfMOvalICT-63" value="LOGIN&lt;div&gt;DETAILS&lt;/div&gt;" style="text;html=1;align=center;verticalAlign=middle;resizable=0;points=[];autosize=1;strokeColor=none;fillColor=none;labelBorderColor=none;textShadow=1;" vertex="1" parent="CrdlNod6DZvfMOvalICT-64">
          <mxGeometry x="6" y="79" width="67" height="41" as="geometry" />
        </mxCell>
        <mxCell id="CrdlNod6DZvfMOvalICT-65" value="" style="endArrow=classic;html=1;rounded=0;exitX=1;exitY=0.75;exitDx=0;exitDy=0;labelBorderColor=none;textShadow=1;" edge="1" parent="CrdlNod6DZvfMOvalICT-64" source="CrdlNod6DZvfMOvalICT-22">
          <mxGeometry width="50" height="50" relative="1" as="geometry">
            <mxPoint x="-68" y="59.289999999999964" as="sourcePoint" />
            <mxPoint x="6" y="52.75" as="targetPoint" />
          </mxGeometry>
        </mxCell>
        <mxCell id="CrdlNod6DZvfMOvalICT-67" value="" style="group;labelBorderColor=none;textShadow=1;" vertex="1" connectable="0" parent="1">
          <mxGeometry x="934" y="-1068" width="128" height="128" as="geometry" />
        </mxCell>
        <mxCell id="CrdlNod6DZvfMOvalICT-44" value="" style="shape=image;verticalLabelPosition=bottom;labelBackgroundColor=default;verticalAlign=top;aspect=fixed;imageAspect=0;image=data:image/jpeg,/9j/4AAQSkZJRgABAQEBLAEsAAD/4QBWRXhpZgAATU0AKgAAAAgABAEaAAUAAAABAAAAPgEbAAUAAAABAAAARgEoAAMAAAABAAIAAAITAAMAAAABAAEAAAAAAAAAAAEsAAAAAQAAASwAAAAB/+0ALFBob3Rvc2hvcCAzLjAAOEJJTQQEAAAAAAAPHAFaAAMbJUccAQAAAgAEAP/hDIFodHRwOi8vbnMuYWRvYmUuY29tL3hhcC8xLjAvADw/eHBhY2tldCBiZWdpbj0n77u/JyBpZD0nVzVNME1wQ2VoaUh6cmVTek5UY3prYzlkJz8+Cjx4OnhtcG1ldGEgeG1sbnM6eD0nYWRvYmU6bnM6bWV0YS8nIHg6eG1wdGs9J0ltYWdlOjpFeGlmVG9vbCAxMC4xMCc+CjxyZGY6UkRGIHhtbG5zOnJkZj0naHR0cDovL3d3dy53My5vcmcvMTk5OS8wMi8yMi1yZGYtc3ludGF4LW5zIyc+CgogPHJkZjpEZXNjcmlwdGlvbiByZGY6YWJvdXQ9JycKICB4bWxuczp0aWZmPSdodHRwOi8vbnMuYWRvYmUuY29tL3RpZmYvMS4wLyc+CiAgPHRpZmY6UmVzb2x1dGlvblVuaXQ+MjwvdGlmZjpSZXNvbHV0aW9uVW5pdD4KICA8dGlmZjpYUmVzb2x1dGlvbj4zMDAvMTwvdGlmZjpYUmVzb2x1dGlvbj4KICA8dGlmZjpZUmVzb2x1dGlvbj4zMDAvMTwvdGlmZjpZUmVzb2x1dGlvbj4KIDwvcmRmOkRlc2NyaXB0aW9uPgoKIDxyZGY6RGVzY3JpcHRpb24gcmRmOmFib3V0PScnCiAgeG1sbnM6eG1wTU09J2h0dHA6Ly9ucy5hZG9iZS5jb20veGFwLzEuMC9tbS8nPgogIDx4bXBNTTpEb2N1bWVudElEPmFkb2JlOmRvY2lkOnN0b2NrOjQ4OTY4M2M2LTcyNDQtNGNkMy04NzkzLTA1MmUwYmQ5ZmYxYzwveG1wTU06RG9jdW1lbnRJRD4KICA8eG1wTU06SW5zdGFuY2VJRD54bXAuaWlkOmI1OTdmZmM0LTg3NzYtNDg2MC1iZTZlLTNmYjVlYzRmOWEyYTwveG1wTU06SW5zdGFuY2VJRD4KIDwvcmRmOkRlc2NyaXB0aW9uPgo8L3JkZjpSREY+CjwveDp4bXBtZXRhPgogICAgICAgICAgICAgICAgICAgICAgICAgICAgICAgICAgICAgICAgICAgICAgICAgICAgICAgICAgICAgICAgICAgICAgICAgICAgICAgICAgICAgICAgICAgICAgICAgICAgCiAgICAgICAgICAgICAgICAgICAgICAgICAgICAgICAgICAgICAgICAgICAgICAgICAgICAgICAgICAgICAgICAgICAgICAgICAgICAgICAgICAgICAgICAgICAgICAgICAgICAKICAgICAgICAgICAgICAgICAgICAgICAgICAgICAgICAgICAgICAgICAgICAgICAgICAgICAgICAgICAgICAgICAgICAgICAgICAgICAgICAgICAgICAgICAgICAgICAgICAgIAogICAgICAgICAgICAgICAgICAgICAgICAgICAgICAgICAgICAgICAgICAgICAgICAgICAgICAgICAgICAgICAgICAgICAgICAgICAgICAgICAgICAgICAgICAgICAgICAgICAgCiAgICAgICAgICAgICAgICAgICAgICAgICAgICAgICAgICAgICAgICAgICAgICAgICAgICAgICAgICAgICAgICAgICAgICAgICAgICAgICAgICAgICAgICAgICAgICAgICAgICAKICAgICAgICAgICAgICAgICAgICAgICAgICAgICAgICAgICAgICAgICAgICAgICAgICAgICAgICAgICAgICAgICAgICAgICAgICAgICAgICAgICAgICAgICAgICAgICAgICAgIAogICAgICAgICAgICAgICAgICAgICAgICAgICAgICAgICAgICAgICAgICAgICAgICAgICAgICAgICAgICAgICAgICAgICAgICAgICAgICAgICAgICAgICAgICAgICAgICAgICAgCiAgICAgICAgICAgICAgICAgICAgICAgICAgICAgICAgICAgICAgICAgICAgICAgICAgICAgICAgICAgICAgICAgICAgICAgICAgICAgICAgICAgICAgICAgICAgICAgICAgICAKICAgICAgICAgICAgICAgICAgICAgICAgICAgICAgICAgICAgICAgICAgICAgICAgICAgICAgICAgICAgICAgICAgICAgICAgICAgICAgICAgICAgICAgICAgICAgICAgICAgIAogICAgICAgICAgICAgICAgICAgICAgICAgICAgICAgICAgICAgICAgICAgICAgICAgICAgICAgICAgICAgICAgICAgICAgICAgICAgICAgICAgICAgICAgICAgICAgICAgICAgCiAgICAgICAgICAgICAgICAgICAgICAgICAgICAgICAgICAgICAgICAgICAgICAgICAgICAgICAgICAgICAgICAgICAgICAgICAgICAgICAgICAgICAgICAgICAgICAgICAgICAKICAgICAgICAgICAgICAgICAgICAgICAgICAgICAgICAgICAgICAgICAgICAgICAgICAgICAgICAgICAgICAgICAgICAgICAgICAgICAgICAgICAgICAgICAgICAgICAgICAgIAogICAgICAgICAgICAgICAgICAgICAgICAgICAgICAgICAgICAgICAgICAgICAgICAgICAgICAgICAgICAgICAgICAgICAgICAgICAgICAgICAgICAgICAgICAgICAgICAgICAgCiAgICAgICAgICAgICAgICAgICAgICAgICAgICAgICAgICAgICAgICAgICAgICAgICAgICAgICAgICAgICAgICAgICAgICAgICAgICAgICAgICAgICAgICAgICAgICAgICAgICAKICAgICAgICAgICAgICAgICAgICAgICAgICAgICAgICAgICAgICAgICAgICAgICAgICAgICAgICAgICAgICAgICAgICAgICAgICAgICAgICAgICAgICAgICAgICAgICAgICAgIAogICAgICAgICAgICAgICAgICAgICAgICAgICAgICAgICAgICAgICAgICAgICAgICAgICAgICAgICAgICAgICAgICAgICAgICAgICAgICAgICAgICAgICAgICAgICAgICAgICAgCiAgICAgICAgICAgICAgICAgICAgICAgICAgICAgICAgICAgICAgICAgICAgICAgICAgICAgICAgICAgICAgICAgICAgICAgICAgICAgICAgICAgICAgICAgICAgICAgICAgICAKICAgICAgICAgICAgICAgICAgICAgICAgICAgICAgICAgICAgICAgICAgICAgICAgICAgICAgICAgICAgICAgICAgICAgICAgICAgICAgICAgICAgICAgICAgICAgICAgICAgIAogICAgICAgICAgICAgICAgICAgICAgICAgICAgICAgICAgICAgICAgICAgICAgICAgICAgICAgICAgICAgICAgICAgICAgICAgICAgICAgICAgICAgICAgICAgICAgICAgICAgCiAgICAgICAgICAgICAgICAgICAgICAgICAgICAgICAgICAgICAgICAgICAgICAgICAgICAgICAgICAgICAgICAgICAgICAgICAgICAgICAgICAgICAgICAgICAgICAgICAgICAKICAgICAgICAgICAgICAgICAgICAgICAgICAgICAgICAgICAgICAgICAgICAgICAgICAgICAgICAgICAgICAgICAgICAgICAgICAgICAgICAgICAgICAgICAgICAgICAgICAgIAogICAgICAgICAgICAgICAgICAgICAgICAgICAgICAgICAgICAgICAgICAgICAgICAgICAgICAgICAgICAgICAgICAgICAgICAgICAgICAgICAgICAgICAgICAgICAgICAgICAgCiAgICAgICAgICAgICAgICAgICAgICAgICAgICAgICAgICAgICAgICAgICAgICAgICAgICAgICAgICAgICAgICAgICAgICAgICAgICAgICAgICAgICAgICAgICAgICAgICAgICAKICAgICAgICAgICAgICAgICAgICAgICAgICAgICAgICAgICAgICAgICAgICAgICAgICAgICAgICAgICAgICAgICAgICAgICAgICAgICAgICAgICAgICAgICAgICAgICAgICAgIAo8P3hwYWNrZXQgZW5kPSd3Jz8+/9sAQwAFAwQEBAMFBAQEBQUFBgcMCAcHBwcPCwsJDBEPEhIRDxERExYcFxMUGhURERghGBodHR8fHxMXIiQiHiQcHh8e/9sAQwEFBQUHBgcOCAgOHhQRFB4eHh4eHh4eHh4eHh4eHh4eHh4eHh4eHh4eHh4eHh4eHh4eHh4eHh4eHh4eHh4eHh4e/8AAEQgBaAFoAwERAAIRAQMRAf/EABwAAQACAgMBAAAAAAAAAAAAAAAGBwUIAQIEA//EAE0QAAEDAgMEBAYMDQMEAwAAAAABAgMEBQYHEQgSITETQVFhcYGRkqGxFCIjMjdCcnOCsrPBFRckMzZDUlRig6LC0hhWYxaVo+N1lKT/xAAVAQEBAAAAAAAAAAAAAAAAAAAAAf/EABYRAQEBAAAAAAAAAAAAAAAAAAARAf/aAAwDAQACEQMRAD8A3LAAAAAAAAAAAAAAAAAAAAAAAAAAAAAAAAAAAAAAAAAAAAAAAAAAAAAAAAAAAAAAAAAAAAAAAAAAAAAAAAAAAAAAAAAAAAAAAAAAAAAAAAAAAAAAAAAAAAAAAAAAAAAAAAAAAAAAAAAAAAAAAAAAAAAAAAAAAAAAAAAAAAAAAAAAAAAAAAAAAAAAAAAAAAAAAAAAAAAAAAAAAAAAAAAAAAAAAAAAAAAAAAAAAAAAAAAAAAAAAAAAAAAAAAAAAAAAAAAAAAAAAAAAAAAAAAAAAAAAAAAAAAAAAAAAAAAAAAAAAAAAAAAAAAAAAAAAAAAAAAAAAAAAAAAAAAAAAAAAAAAAAAAAAAAAAAAAAAAAAAAAAAAAAAAAAAAAAAAAAAAAAAAAAAAAAAAAAAAAAAAAAAAAAAAAAAAAAAAAAAAAAAAAAAAAAAAAAAAAAAAAAAAAAAAAAAAAAAAAAAAAAAAAAAAAAAAAAAAAAAAAAAAAAAAAAAAAAAAAAAAAAAAAAAAAAAAAAAAAAAAAAAAAAAAAAAAAAAAAAAAAAAAAAAAAAAAAAAAAAAAAAAAAAAAAAAAAAAAAAAAAAAAAAAAAAAAAAAAAADVO0BqBwqoiaquid4HTp4ddOlZr8pAO6Kipqi6p3Ac6gNU7QAAAAAAAAAAAAAAAAAAAAAAAAAAAAAAAAAAAAAAAAARzF+OcJYSj3sQ36ioHaapE9+9K7wRt1cvkAqLE21Bhulc6PD9huNzcnBJJ3Npo17/jO9CFgrq+bS2Pq1VbbqWz2tnUrIHTPTxvXT+kQQ66ZwZmXFyrPjK5RIvVTbkCf0NQQR2txViiuVVrMS3qoVefSV8q/wBwGNkqqqRdZKqoev8AFM5fWoHz33/tv85Sj6R1VVGusdVUMX+GZyepSDJUWKsUUKotHiW9U6py6OvlT+4CRWzODMy3ORYMZXKXTqqdydP62qIJjY9pbH1EqNuNLZ7ozrV8DoXr42Lp/SILFwztQYbqnNjxBYbjbHLwWSBzamNO/wCK70KILdwhjnCWLY97D1+oq92mqxMfuyt8MbtHJ5CCRgAAAAAAAAAAAAAAAAAAAAAAAAAAAAAAAAAAxuJr7asN2SpvN6rY6Oipm70kr/QiJzVVXgiJxVQNTs09oXEmIZpqDCrpbDa9VakrVT2XMnaruUadzeP8RYKVmllnnfPNI+WaRdXyPcrnOXtVV4qUdAAAAAAAAAAAAA7wyywTsnhkfFNGurJGOVrmr2oqcUAurKzaFxJh6aGgxU6W/WvVGrK5U9lwp2o7lInc7j/ESDbHDN9tWJLJTXmy1sdZRVLd6OVnpRU5oqLwVF4opBkgAAAAAAAAAAAAAAAAAAAAAAAAAAAAAAABqDthYsrLlj5mFWSubb7TEx7o0Xg+eRu8rl7dGq1E7NXdpcFGlAAAAAAAAAAAAAAAABeWx7iystuPn4VfK51vu0T3tjVeDJ427yOTs1ajkXt0b2E0bfEAAAAAAAAAAAAAAAAAAAAAAAAAAAAAAAA162mMm7liO5PxlhWP2TXLE1tbQ66OmRiaNfHrwV2miK3r0TTjwWjVipgnpamSmqYZYJ4nbskUrFa9i9itXii+Eo+YAAAAAAAAAAAAAAH0poJ6qpjpqaGWeeV27HFExXPevYjU4qvgA2n2Z8m7lhy5MxliqP2NXJE5tFQ66uhR6aOfJpwR2mqI3q1XXjwSDYUgAAAAAAAAAAAAAAAAAAAAAAAAAAAAAAAFEYpz1fgvNy84ZxBb1q7LC+LoZ6ZE6aDeiY5UVq8Ht1VV6lTvKJfU0GVOcVuSoRLZeJEb+eid0dXD3LppI3wLwIKwxZsuNVz5cKYmVia+1p7jFvIn8xnHytUtFX4gyNzNs6uVcOOuESfrKCZs2v0dUd6BRBrrZLzapFjulouNC5OaVFK+P6yIBjkcxV0R7VXuUo7aL2ANAOAOdAGi9igdVcxOCvanhUDI2qyXm6yJHa7Rca5y8kp6V8n1UUgnOH8jczbwrVTDjrfEvOSvmbDp9HVXegUWhhPZcajmS4rxMr019tT26LdRf5j+Pkagos+moMqcnbctQqWyzyK389K7pKubuTXWR3gTgQRDC2er8aZuWbDOH7etJZpny9NPUonTT7sT3IiNTgxuqIvWq9xRe5AAAAAAAAAAAAAAAAAAAAAAAAAAAAAAAANGdp34cMQ+GD7CMuCuqWoqKSpZU0s8tPPGurJYnqx7fA5OKFFk4Wz2zJsKMjW9Mu0Df1dxiSVfPTR/lVSQWXYdqZu61l/wi5F+NLQ1SKnmPRPrCCb2vaJyyuDdyrqrjb95OKVVC5yeVm8hIPemK8i8QL7vX4OqXO/e4YmO/raigcLgnIy6LvRWzCM29+71EbfqOQDn8TWTtQnueHaH+XXSp6pAOPxF5S66/wDTzPB7Pm/zA5/E1k7Tp7ph2h/mV0q+uQDhME5GWtd6W2YRh3f3iojd9dygcrivIvD6+4V+DqZzf3SGJ7v6GqoHgum0Tllb27lJVXG4bqcEpaFzU8r91BBCL9tTN3XMsGEXKvxZa6qRE8xiL9YsFaYpz2zJvyPjS9MtMDv1duiSJfPXV/kVBBW1VUT1dS+pqp5aieRdXyyvV73eFy8VKLF2Yvhww94Z/sJCaN5iAAAAAAAAAAAAAAAAAAAAAAAAAAAAAAAAaM7Tvw4Yh8MH2EZcFalAAAA517QOu4xebGL9FAOWojfeoieDgB233ftO8qgdXIjvfIi+HiBxuMTkxifRQDtr2AcAAAACytmL4cMPeGf7CQmjeYgAAAAAAAAAAAAAAAAAAAAAAAAAAAAAAAGu20hkrd8RXyfGOFdKurmjalZQOcjXPVjUaj41Xgq7qIitXTlqi9RRrDcqGutldJQ3KjqKKrjXR8FRGsb2/RXiUeYAAAAAAAAAAAAAAD022grrnXR0Nto6itq5F0ZBTxrI930U4gbPbN+St3w7fIMY4q0pKuGNyUdA1yOcxXtVqvkVOCLuqqI1Neeqrw0INiSAAAAAAAAAAAAAAAAAAAAAAAAAAAAAAAAa/wCNM9rhgfN29Yeu1tbcrLC+HolhVGVECOiY5dNfavTVVXRdF48yiZ0GMco80aJlHVVForpHJolHcomxzsVepqP0XXvYqkEexLs14EuKultFTc7LI7k2KVJok+jJqvkcKK8vmy7iaBXOs2I7VXMTk2oifA5fJvoWiG3TIfNGh1VMOsrGp8alrIn6+JVRfQKI3XZc4+otVqcGX5iJzVKJ708rUUDDVNjvdMulTZbpCv8AyUUrfW0DyPp6hnv6eZvyo3J9wHTcf+w/zVKO7Keof7ynmd8mNy/cQeumsd7qV0prLdJl/wCOild6mgZmhy5x9W6LTYMvz0Xkq0T2J5XIgEkteQ+aNdoq4dZRtX41VWRM08SKq+gUTKx7LuJp1a684jtVCxebaeJ87k8u4gosPDWzXgS3K2W71NzvUjeKtll6GJfox6L5XEokNfjHKPK6ifR0tRaKGRqaLR22Jsk71TqcjNV173qgELwVntcMcZu2XD1ptrbbZZnzdKsyo+onRsT3Jrp7Viaoi6JqvDmUbAkAAAAAAAAAAAAAAAAAAAAAAAAAAAAAAAA0Z2nfhwxD4YPsIy4K1VEVNFRFTvKJHhzHeM8Oo1tlxPdaONvKJKhXx+Y7VvoILBsu0hmLQ6JWrabo1OfT0qxuXxxqiegQTC17VEyNRt0wYx69bqWv09DmfeIJFQbUGDZERK2xX6mXr3GRSJ6HoIMvT7R+Wkvv57vB85QOX6qqSD3Mz+yqlT299mb3Pt83+Ag7/j1yl0/SFv8A2+b/AAA6Pz+yqiT2l9md3Mt83+Ag8NRtH5aRe8nu8/zdA5PrKggxFftQYNjRUorFfqlerfZFGnpepYI7dNqiZWq214MYxep1VX6+hrPvEEPve0hmLXapRLabW1eXQUqyOTxyKqegQV9iPHeM8RI5t6xPdayN3OJahWR+Y3RvoAjiIiJoiIidxRZWzF8OGHvDP9hITRvMQAAAAAAAAAAAAAAAAAAAAAAAAAAAAAAADRnadRUzwxDr2wfYRlwVqUAAAAAAAAAAAAAAAAFlbMSa54Ye0Trn+wkJo3mIAAAAAAAAAAAAAAAAAAAAAAAAAAAAAAABV2dGTlkzD0uMc62y+RR9GyrYzebK1OTZW8N5E6lRUVNetOAGr2N8n8f4TfI+ssc1dRs1/K7eizx6dqoibzfGiFEB+MrfjJwVOtPChQAAAAAAAAAAAAB8ZG/GXgida+BAJ9gjJ/H+LHxvo7HNQ0b9Pyu4IsEenaiKm87xIpBtDkvk5ZMvNbjJOtzvksfRvq3s3WxNXm2JvHdRetVVVXTqTgQWiAAAAAAAAAAAAAAAAAAAAAAAAAAAAAAAANRc3MxcW4Fz5xE+wXRzKdz4HS0cydJTyL0EfNi8l72qi95RN8G7Tthq2shxXZqq2TcnVFJ7vCq9unB7fI4QTlazJnMduskmGLvM/qlRjKj07siEGDvezflzcFc+hS62ty8W+x6tXsTxSI71iiG3TZXborrVjN6djKqhRfSxyeotEcrtmHG0SKtJerDUp1I58sa/VX1ijDVOztmdEqpHQ2ufvjuDU185EFHjkyCzVYv6ORO+TcIP8hR8/wAQ+av+1/8A90H+Yo+keQWar1/RyJvyrhB/kKPZTbO2Z0qoklDa4O+S4NXTzUUUZmh2YcbSoi1d6sNMnWjXyyL9VPWKJHa9lduiOuuM3r2spaFE9L3L6hRMrJs35c29Wvrkut0c3i72TVqxi+KNG+slGcSsyZy4brHJhi0TM6okY+o9G9IoEGxltO2Gka+HClmqrnNybPV+4Qovbpxe7yNLBCMo8xcW46z4w6+/3Rz6dr53RUcKdHTx+4ScmJzXvcqr3gbdEAAAAAAAAAAAAAAAAAAAAAAAAAAAAAAAA0Z2nfhwxD4YPsIy4K1KCoi++RF07UAzNlxViey6fgjEV3oUTk2Cska3zddPQQS+155Zo0DUa3FD6lqdVVTRS+ndRfSIJHQbS+YVOiJUUlhrO99K9ir5rxBl6falxI3T2RhW0SdvR1MrPWiiD3R7VNZ+swTAq/w3FfvjEH1/1VSf7Hb/ANy/9Yg+Um1TWfq8EwIv8VxX7oxB4ajalxI7X2PhW0R9nSVMr/UiCDEV+0vmFUIqU9JYaPvZSveqec8QRy6Z5Zo17Va7FD6Zq9VLTRRendVfSIIhesVYnvWv4XxFd65F5tnrJHN83XT0AYZERPeoia9iFACytmL4cMPeGf7CQmjeYgAAAAAAAAAAAAAAAAAAAAAAAAAAAAAAAGkO1RQ1dJnVd56inkjiq44Jqd7k4SMSJrVVF69HNVF7C4KtKAAAAAAAAAAAAAAAAC0tlehq6vOq0T09PJJFSRzzVD2pwjYsTmoqr1auciJ2k0bvEAAAAAAAAAAAAAAAAAAAAAAAAAAAAAAAAh2KbdgTMCSuwneEorhWW9yLLT7+7UUyuajke1U0c3VFTinBeS9gFFY32YblA+Sowfe4auLiraW4e5yJ3JI1N13jRC0VBibLjHWHFet3wtc4o285ooumi89mqeUCKLojlYqojk5tXmniKAAAAAAAAAAARUV6MRUVy8mpzXxASvDOXGOsRqxbRha5yxu5TSxdDF579E8hBb+CNmG5TvjqMYXuGki4K6lt/uki9yyOTdb4kUUXrha3YEy/kocJ2dKK31lwcqxU+/vVFSrWq5XuVdXO0RF4rwTknYQTEAAAAAAAAAAAAAAAAAAAAAAAAAAAAAAAAaP7SFVU0Wfd9q6KompqiJ9O6OaGRWPYvQR8UcnFCjI4N2iMe2NrILm+lv8ATN4flbdybT5xnP6SKILaw5tNYMrWtZerZdbRKvNzWJURp42e2/pJBKExXkpjTVtVccK173pyro42Sf8AlRFA+NRkrlFe4llpLHStR3HpKCse1PI12noAwdbsy4Bm1Wmrr/Sr2NqWPRPOYvrFGFqdlmxuVfY+L7pH85TRP9WhaPHJsqwfqscS/StqfdIKPl/pVfr+nCaf/G/+wUfWPZVg/W44l+jbU++QUeym2WbG1U9kYvuknzdNEz16ijNUWzLgGHRamvv9UvY6pYxF81iEozlPkrlFZIklq7HSuRvHpK+se5PI52noA+y4ryUwXo2luOFaB7E5UMcb5P8AxIqgRfEe01gyia5lltl1u8qcnOYlPGvjf7b+kQVLjLaIx7fGvgtj6WwUzuH5I3fm0+cfy+iiFgx2zfVVNbn3YqutqJqmolfUOkmmkV73r0EnFXLxUDeAgAAAAAAAAAAAAAAAAAAAAAAAAAAAAAAAGjO078OGIfDB9hGXBWpQALxTReKd4Henllpnb9NLJA7tierF9AGcoMa4yoERKLFl+gROSMuEunkVxBl6bNrMun/N41u6/OPa/wCs1QPfFnfmnHyxdUO+VTQL/YIPr+PbNT/dTv8A6UH+Ag+Uud+acnPF1Q35NNAn9gg8FTm1mXUfnMa3dPm3tZ9VqAYivxrjKvRUrcWX6dF5o+4S6eRHAYOollqXb9TLJO7tler19JR0TgmicE7gAACytmL4cMPeGf7CQmjeYgAAAAAAAAAAAAAAAAAAAAAAAAAAAAAAAGku1bbqqhzoudRPG5sVdBBUQOVODmpGjF08DmKhcFUlAAAAAAAAAAAAAAAABa2ylbqquzotlRBG50VDBPUTuRODWrGrE18LnohNG7RAAAAAAAAAAAAAAAAAAAAAAAAAAAAAAAAIVm5lxZsxbC2huCupqynVXUdbG3V8Ll5pp8Zq6Jq3r0TkqIoGnOY2WGMMC1D/AML218tCi6MuFMivp3J3rzYvc7TxlEK5pqnFCgAAAAAAAAAAAADkmq8EAmuXOWGMMdVDPwRbXxUKro+4VKKynancvN69zdfEQbjZR5cWbLqwuoberqmsqFR1ZWyN0fM5OSafFamq6N6tV5qqqQTUAAAAAAAAAAAAAAAAAAAAAAAAAAAAAAAAAOsjGSMcx7Uc1yaKipqioBXOL8kcucSPfNNYm26peuqz253QOVe1Wp7RfG0CrMQ7LMiK5+H8Woqa+1ir6bl9Ni/2logl32eMzaFzvY9Bb7k1PjUta1FXxSbqiiLXDK7MWhVfZGCr3onNYqfpU8rFUDBVeHcQ0iqlVYLvAqc+koZW6eVoHgfTVLPf007PlROT1oUdNx/7D/NUDuymqZPeU07/AJMTl+4D30mHcQ1aolLYLvOq8ujoZXa+RpBnLfldmLXKnsfBV70XkstP0SeV6oBKrRs8Zm1zm+yKC321q/Gqq1qqnijRwoneHtlmRVa/EOLURNfbRUFNz+m9f7RRaeEMkcucNvZNDYm3GpYuqT3F3TuRe1Gr7RPE0gsaNjI2NYxqNa1NERE0REA7AAAAAAAAAAAAAAAAAAAAAAAAAAAAAAAAAAAAAAABogDQDhzUcmioip3gdOgh116JmvyUA7tajU0RERO4DnQBogAAAAAAAAAAAAAAAAAAAAAAAAAAAAAAAAAAAAAAAAAAAAAAAAAAAAAAAAAAAAAAAAAAAAAAAAAAAAAAAAAAAAAAAAAAAAAAAAAAAAAAAAAAAAAAAAAAAAAAAAAAAAAAAAAAAAAAAAAAAAAAAAAAAAAAAAAAAAAAAAAAAAAAAAAAAAAAAAAAAAAAAAAAAAAAAAAAAAAAAAAAAAAAAAAAAAAAAAAAAAAAAAAAAAAAAAAAAAAAAAAAAAAAAAAAAAAAAAAAAAAAAAAAAAAAAAAAAAAAAAAAAAAAAAAAAAAAAAAAAAAAAAAAAAAAAAAAAAAAAAAAAAAAAAAAAAAAAAAAAAAAAAAAAAAAAAAAAAAAAAAAAAAAAAAAAAAAAAAAAAAAAAAAAAAAAAAAAAAAAAAAAAAAAAAAAAAAAAAAAAAAAAAAAAAAAAAAAAAAAAAAAAAAAAAAAAAAAAAAAAAAAAAAAAAAAAAAAAAAAAAAAAAAAAAAAAAAAAAAAAAAAAAAAAAAAAAAAAAAAAAAAAAAAAAAAAAAAAAAAAAAAAAAAAAAAAAAAAAAAAAAAAAAAAAAAAAAAAAAAAAAAAAAAAAAAAAAAAAAAAf/2Q==;textShadow=1;" vertex="1" parent="CrdlNod6DZvfMOvalICT-67">
          <mxGeometry width="128" height="128" as="geometry" />
        </mxCell>
        <mxCell id="CrdlNod6DZvfMOvalICT-66" value="DATABASE" style="text;html=1;align=center;verticalAlign=middle;resizable=0;points=[];autosize=1;strokeColor=none;fillColor=none;labelBorderColor=none;textShadow=1;" vertex="1" parent="CrdlNod6DZvfMOvalICT-67">
          <mxGeometry x="24" y="102" width="80" height="26" as="geometry" />
        </mxCell>
        <mxCell id="CrdlNod6DZvfMOvalICT-70" value="" style="endArrow=classic;html=1;rounded=0;exitX=0.5;exitY=0;exitDx=0;exitDy=0;labelBorderColor=none;textShadow=1;" edge="1" parent="1" source="CrdlNod6DZvfMOvalICT-21" target="CrdlNod6DZvfMOvalICT-66">
          <mxGeometry width="50" height="50" relative="1" as="geometry">
            <mxPoint x="1107" y="-690.5" as="sourcePoint" />
            <mxPoint x="1157" y="-740.5" as="targetPoint" />
          </mxGeometry>
        </mxCell>
        <mxCell id="CrdlNod6DZvfMOvalICT-71" value="" style="endArrow=classic;html=1;rounded=0;exitX=1;exitY=0.5;exitDx=0;exitDy=0;labelBorderColor=none;textShadow=1;" edge="1" parent="1" source="CrdlNod6DZvfMOvalICT-44" target="CrdlNod6DZvfMOvalICT-46">
          <mxGeometry width="50" height="50" relative="1" as="geometry">
            <mxPoint x="1096" y="-973" as="sourcePoint" />
            <mxPoint x="1146" y="-1023" as="targetPoint" />
          </mxGeometry>
        </mxCell>
        <mxCell id="CrdlNod6DZvfMOvalICT-72" value="" style="endArrow=classic;html=1;rounded=0;exitX=0;exitY=0.653;exitDx=0;exitDy=0;exitPerimeter=0;labelBorderColor=none;textShadow=1;" edge="1" parent="1" source="CrdlNod6DZvfMOvalICT-46">
          <mxGeometry width="50" height="50" relative="1" as="geometry">
            <mxPoint x="1128" y="-975" as="sourcePoint" />
            <mxPoint x="1059" y="-976" as="targetPoint" />
          </mxGeometry>
        </mxCell>
        <mxCell id="CrdlNod6DZvfMOvalICT-73" value="REQUEST" style="text;html=1;align=center;verticalAlign=middle;resizable=0;points=[];autosize=1;strokeColor=none;fillColor=none;labelBorderColor=none;textShadow=1;" vertex="1" parent="1">
          <mxGeometry x="1062" y="-961" width="76" height="26" as="geometry" />
        </mxCell>
        <mxCell id="CrdlNod6DZvfMOvalICT-74" value="RESPONSE" style="text;html=1;align=center;verticalAlign=middle;resizable=0;points=[];autosize=1;strokeColor=none;fillColor=none;labelBorderColor=none;textShadow=1;" vertex="1" parent="1">
          <mxGeometry x="1058" y="-1042" width="85" height="26" as="geometry" />
        </mxCell>
        <mxCell id="CrdlNod6DZvfMOvalICT-75" value="" style="endArrow=classic;html=1;rounded=0;exitX=1;exitY=0.75;exitDx=0;exitDy=0;entryX=0;entryY=0.5;entryDx=0;entryDy=0;labelBorderColor=none;textShadow=1;" edge="1" parent="1" source="CrdlNod6DZvfMOvalICT-21" target="CrdlNod6DZvfMOvalICT-23">
          <mxGeometry width="50" height="50" relative="1" as="geometry">
            <mxPoint x="1085" y="-626" as="sourcePoint" />
            <mxPoint x="1210" y="-621" as="targetPoint" />
          </mxGeometry>
        </mxCell>
        <mxCell id="CrdlNod6DZvfMOvalICT-76" value="" style="endArrow=classic;html=1;rounded=0;exitX=1;exitY=0.5;exitDx=0;exitDy=0;entryX=0;entryY=0.5;entryDx=0;entryDy=0;labelBorderColor=none;textShadow=1;" edge="1" parent="1" source="CrdlNod6DZvfMOvalICT-23" target="CrdlNod6DZvfMOvalICT-20">
          <mxGeometry width="50" height="50" relative="1" as="geometry">
            <mxPoint x="1400" y="-619" as="sourcePoint" />
            <mxPoint x="1626" y="-625" as="targetPoint" />
          </mxGeometry>
        </mxCell>
        <mxCell id="CrdlNod6DZvfMOvalICT-78" value="" style="edgeStyle=orthogonalEdgeStyle;rounded=0;orthogonalLoop=1;jettySize=auto;html=1;exitX=0.574;exitY=0.898;exitDx=0;exitDy=0;exitPerimeter=0;labelBorderColor=none;textShadow=1;" edge="1" parent="1" source="CrdlNod6DZvfMOvalICT-82" target="CrdlNod6DZvfMOvalICT-77">
          <mxGeometry relative="1" as="geometry">
            <mxPoint x="1301" y="-524" as="sourcePoint" />
          </mxGeometry>
        </mxCell>
        <mxCell id="CrdlNod6DZvfMOvalICT-77" value="BOOKING" style="rhombus;whiteSpace=wrap;html=1;verticalAlign=middle;labelBackgroundColor=default;labelPosition=center;verticalLabelPosition=middle;align=center;textShadow=1;" vertex="1" parent="1">
          <mxGeometry x="1260" y="-416" width="128" height="130" as="geometry" />
        </mxCell>
        <mxCell id="CrdlNod6DZvfMOvalICT-79" value="PAYMENT GATEWAY" style="text;html=1;align=center;verticalAlign=middle;resizable=0;points=[];autosize=1;strokeColor=none;fillColor=none;rotation=-90;labelBorderColor=none;textShadow=1;" vertex="1" parent="1">
          <mxGeometry x="1292" y="-484" width="135" height="26" as="geometry" />
        </mxCell>
        <mxCell id="CrdlNod6DZvfMOvalICT-23" value="" style="shape=image;verticalLabelPosition=bottom;labelBackgroundColor=default;verticalAlign=top;aspect=fixed;imageAspect=0;image=data:image/png,iVBORw0KGgoAAAANSUhEUgAAAB4AAAAeCAYAAAA7MK6iAAAAAXNSR0IArs4c6QAAATFJREFUSEvt1j1KBEEQhuFnzQRvoKCBqT+JhzBTwVS9hib+gB5BBEONRMHII5iKiWaCpl5AE3UaeqF3d3bAne2dReyop+mut77qmupqaWi0GuIaO/AcZqnl2Ace8FkW1W7Fi7jEwpCu4B1ruO+2l4In8YSgdpjjEctV4I1C6U3ccBrnXzU82ME2vjFRBd7DcdwQVL/WgIajBwV0P9roSeJ0Id14hqvo7aD8tuJwvkdIP/CgsKpzF0noO36XVHEOcLC5XiTabZiMUnHghTs/agJ8GJNu5Ir/JridN2XJmlXxPzitCX8z1FVVL6viX4N3cZKrSEe7pYpXcZcZXFqrp/CMmYzwTVx3PxLhewXnWMoAD03kVru56NdXTxfd5nzN9jb1/QVv6cLYNfQZIt1psjHFP+9MQB/daNroAAAAAElFTkSuQmCC;textShadow=1;" vertex="1" parent="1">
          <mxGeometry x="1266" y="-676" width="98" height="98" as="geometry" />
        </mxCell>
        <mxCell id="CrdlNod6DZvfMOvalICT-82" value="PAYMENT&amp;nbsp;&lt;div&gt;METHOD&lt;/div&gt;" style="text;html=1;align=center;verticalAlign=middle;resizable=0;points=[];autosize=1;strokeColor=none;fillColor=none;labelBorderColor=none;textShadow=1;" vertex="1" parent="1">
          <mxGeometry x="1280.5" y="-586" width="77" height="41" as="geometry" />
        </mxCell>
        <mxCell id="CrdlNod6DZvfMOvalICT-84" value="USER&lt;div&gt;FEEDBACK&lt;/div&gt;" style="text;html=1;align=center;verticalAlign=middle;resizable=0;points=[];autosize=1;strokeColor=none;fillColor=none;labelBorderColor=none;textShadow=1;" vertex="1" parent="1">
          <mxGeometry x="1573" y="-572" width="83" height="41" as="geometry" />
        </mxCell>
        <mxCell id="CrdlNod6DZvfMOvalICT-85" value="SECURITY&lt;div&gt;AUTHENTICATION&lt;/div&gt;" style="whiteSpace=wrap;html=1;verticalAlign=top;labelBackgroundColor=default;textShadow=1;" vertex="1" parent="1">
          <mxGeometry x="1580" y="-1026" width="120" height="60" as="geometry" />
        </mxCell>
        <mxCell id="CrdlNod6DZvfMOvalICT-87" value="" style="endArrow=classic;html=1;rounded=0;exitX=0.5;exitY=0;exitDx=0;exitDy=0;labelBorderColor=none;textShadow=1;" edge="1" parent="1" source="CrdlNod6DZvfMOvalICT-23">
          <mxGeometry width="50" height="50" relative="1" as="geometry">
            <mxPoint x="1294" y="-811" as="sourcePoint" />
            <mxPoint x="1315" y="-935" as="targetPoint" />
          </mxGeometry>
        </mxCell>
        <mxCell id="CrdlNod6DZvfMOvalICT-89" value="" style="shape=image;verticalLabelPosition=bottom;labelBackgroundColor=default;verticalAlign=top;aspect=fixed;imageAspect=0;image=data:image/jpeg,/9j/4AAQSkZJRgABAQACWAJYAAD/2wCEAAgGBgcGBQgHBwcJCQgKDBQNDAsLDBkSEw8UHRofHh0aHBwgJC4nICIsIxwcKDcpLDAxNDQ0Hyc5PTgyPC4zNDIBCQkJDAsMGA0NGDIhHCEyMjIyMjIyMjIyMjIyMjIyMjIyMjIyMjIyMjIyMjIyMjIyMjIyMjIyMjIyMjIyMjIyMv/CABEIA9QD1AMBIgACEQEDEQH/xAAxAAEAAgMBAQEAAAAAAAAAAAAABwgBBQYEAgMBAQEBAQAAAAAAAAAAAAAAAAABAgP/2gAMAwEAAhADEAAAAJ/AAAAAAAAAAAAAAAAAAAAAAAAAAAAAAAAAAAAAAAAAAAAAAAAAAAAAAAAAAAAAAAAAAAAAAAAAAAAAAAAAAAAAAAAAAAAAAAAAAAAAAAAAAAAAAAAAAAAAAAAAAAAAAAAAAAAAAAAAAAAAAAAAAAAAAAAAAAAAAAAAAAAAAAAAAAAAAAAAAAAAAAAAAAAAAAAAAAAAAAAAAAAAAAAAAAAAAAAAAAAAAAAAAAAAAAAAAAAAAAAAAAAAAAAAAAAAAAAAAAAAAAAAAAAAAAAAAAAAAAAAAAAAAAAAAAAAAAAAAAAAAAAAAAAAAAAAAAAAAAAAAAAAAAAAAAAAAAAAAAAAAAAAAAAAAAAAAAAAAAAAAAAAAAAAAAAAAAAAAAAAAAAAAAAAAAAAAAAAAAAAAAAAAAAAAAAAAAAAAAAAAAAAAAAAAAAAAAAAAAAAAAAAAAAAAAAAAAAAAAAAAAAAAAAAAAAAAAAAAAAAAAAAAAAAAAAAAAAAAAAAAAAAAAAAAAAAAAAAAAAAAAAAAAAAAAAAAAAAAAAAAAAAAAAAAAAAAAAAAAAAAAAAAAAAAAAAAAAAAAAAAAAAAAAAAAAAAAAAAAAAAAAAAAAAAAAAAAAAAAAAAAAAAAAAAAAAAAAAAAAAAAAAAAAAAAAAAAAAAAAAAAAAAAAAAAAAAAAAAAAAAAAAAAAAAAAAAAAAAAAAAAAAAAAAAAAAAAAAAAAAAAAAAAAAAAAAAAAAAAAAAAAAAAAAAAAAAAAAAAAAAAAAAAAAAAAAAAAAAAAAAAAAAAAAAAAAAAAAAAAAAAAAAAAAAAAAAAAAAAAAAAAAAaqOYlvFaORLe62nPyW++6fi6Hvo/wCsuvmp3aE+uH7WvsAAAAAAAAAAAAAAAAAAAAAAAAAAAAAAAAAAAAAAAAAAAAAAAAAAAADGmgGJmhiNkffwQEAAAAN5o1T1LlKdrVzUUynp9gAAAAAAAAAAAAAAAAAAAAAAAAAAAAAAAAAAAAAAAAAAAAAAAAHyZjXmoOy93gICAAAAAAAAEhx4q6Gyp7aHToRQAAAAAAAAAAAAAAAAAAAAAAAAAAAAAAAAAAAAAAAAAAAAAAwIH3FfsggIAAAAAAAAAAbfUKuD0NPbYabIUAAAAAAAAAAAAAAAAAAAAAAAAAAAAAAAAAAAAAAAAAAAAA4vrKjxofzMggAAAAAAAAAAABIUeqvB9RPLGwAAAAAAAAAAAAAAAAAAAAAAAAAAAAAAAAAAAAAAAAAAAA8hEMDbHXYBAAAAAAAAAAAAAAGzuBSyddJtGgAAAAAAAAAAAAAAAAAAAAAAAAAAAAAAAAAAAAAAAAAACJJaqpHEjAAAAAAAAAAAAAAABuNOq736cB3+wAAAAAAAAAAAAAAAAAAAAAAAAAAAAAAAAAAAAAAAAAAGtpjZqseQZAAAAAAAAAAAAAAAAS/YOo9t9sigAAAAAAAAAAAAAAAAAAAAAAAAAAAAAAAAAAAAAAAAAIPg2WInwCAAAAAAAAAAAAAAAAP2uvSK4+m7GgAAABgZfjozonC68kpE/kiY0KfJNqGfUS4jDYV37lN8e1gZAAAAAAAAAAAAAAAAAAAAAAAAAAAABWWN5FjrAIAAAAAAAAAAAAAAAAzbSpdsdOw47sYr05Pqq5Zytp0dKBeDwUz/ABLWcrX4Sny3Ko/T8soYyAAAAAN51ccKnPq6wquNuaP/AKF2tFUH4LM8pCQmSXafbkuS8vq0AAAAAAAAAAAAAAAAAAAAAAArVGUwQ/gEAAAAAAAAAAAAAAAAZt1US6GmyiKXYQqDBkEAAAAAAAAAAAAAAAAT7MtNrh7fsKAAAAAAAAAAAAAAAAAAAAAAh6v1r6oZBkAAAAAAAAAAAAAAABsLoVbtLtmuVjKmHIjAAAAAAAAAAAAAAAAABYyuffaWkYzoAAAAAAAAAAAAAAAAAAAAAB+NMLq1viLRgAAAAAAAAAAAAAAAM1O01870WnjpbZassBkAAAAAAAAAAAAAAAAAl/T2Q09WTQAAAAAAAAAAAAAAAAAAAAABw3c/JR92HH4BAAAAAAAAAAAAAADt+Is9Uh5Nogr5d2o+XNDIAAAAAAAAAAAAAAAB2fHW5rof2NgAAAAAAAAAAAAAAAAAAAAAAAOEqzeCuERaMAAAAAAAAAAAAAB+1djanmOp0CkUSvr4pa+vnIIAAAAAAAAAAAAAAAkWzkWynsFAAAAAAAAAAAAAAAAAAAAAAAAPB7xT3n7c1Vw8AgAAAAAAAAAAABP/AC1itM5NAGM4Khc33vBYBAAAAAAAAAAAAAADGRb/AKPz+joAAAAAAAAAAAAAAAAAAAAAAAAAAcX2gpX4bcVkw0QgAAAAAAAAABJ22nrTH6mgADGcFY467rhcAgAAAAAAAAAAAAAB9fOC8H34/Z0AAAAAAAAAAAAAAAAAAAAAAAAAAANbshWiNLwx5FYXT8xkEAAAAAAH6yzUZ2F7jZ6YyUAAAxnwlStBnGAQAAAAAAAAAAAAAABbrqItlLoAAAAAAAAAAAAAAAAAAAAAAAAAAAAA+I9kUVi4C7fjilSz3IxB6T9VHCuv/U4tIW8IgzYTt6rFJ85/VabcZUAAAAAjqRK7xEwyCAAAAAAAABLtcnJUyfWkJRZcDzFJ3a8VkEAASvYqmlydvsUAAAAAAAAAAAAAAAAAAAAAAAAAAAAAAABhkAAAAAAAAAfjTWw9ZsgyAAAG/rQfvaPtapF83ShUhcQEDvK2Vkfz/LT8a86fjYl+wNH7n1zdVLnUwjIyAAWoqvKuljWM6AAAAAAAAAAAAAAAAAAAAAAAAAGBl8eE2LSfobd8fRkAAAAAABjynraP9DcPN6DLGQBjOmK8x59/GAQAAB9W6rhbTZyuirKXQ2FPLYkLwzd6sMR+byNhajy7bT4rHs4rgSnHvn5rduQrB0XO4BAAD1eVV1PdEcubAAAAAAAAAAAAAAAAAAAAAAD8j9cRfEkWPj6vmIkzlucR+v4fQxj6Hr7qOhaPvqO9pVr0XyJp7GBkBgZcvFkTTD0O+GOl5zCMMhstaO27CGRaPuaR7Cro/nAUw1x0H3B/EpIneEMvOIAA6u21H7Zaa2r94ICIb7nhkXd8cGWC2qjYzofqMQXua9QOujZWd8/76fhVjYcDAZAAAAdpa2j9ydNwNAAAAAAAAAAAAAAAAAAAAGNTXSJVgnQMgAgAAAAB+v5K7DoIvEv/AJRKJD5XTAAIAAAAAfXyqVZ1pr7qunzfGyrVReZuvW+I4EBDe6JVz/fVu0elYOBujU6OfsRXf9ou3HejgfT8fhscvba3xdHpiuO3haAyAAAAAWMrnKVWQYzsAAAAAAAAAAAAAAAAAAA4XWVwj3asyCAAAAAAAAAAAAAAAAAAAAEoxcq7X6VWs/pX+K7v1siMxkAmCH1Xh5jj5X2pV47N1my+T6j9rT6mSdMRBuK0R8CAgAAAAB0HP5q7/wBeP2bAAAAAAAAAAAAAAAAAAI13FVo/P4MggAAAAAAAAAAAAAAAAAAAAAB2XGquv91rs1pVDjrj1HjwDID9rUVR22ly4Xk7d1S2dJeGON2NUTzeYyCAAAAAABgtr10cSP0AAAAAAAAAAAAAAAAANdsK4Rw+lMggAAAAAAAAAAAAAAAAAAAAAAABPUC/tV3Is6zpdKPZ7bicggDczXXtVq+TgHBtNWAQAAAAAAABY2VYllroAAAAAAAAAAAAAAAAGDi6p9txGAQAAAAAAAAAAAAAAAAAAAAAAAAAB3Vp6O2k09tT7xVXOFGQAAAAAAAAAAAAwWSlHg+86AAAAAAAAAAAAAAAAHGdlXSIpGQQAAAAAAAAAAAAAAAAAAAAAAAAAA7zg81eCNOt3G1JHu8OAQAAAAAAAAAAAOlq1G1+frYAAAAAAAAAAAAAAAD8qY2cqpkGQAAAAAAAAAAAAAAAAAAAAAAAAAAAVPM01VtTpWyMbEV3yCAAAAAAAAAAAE5QzcLTaDQAAAAAAAAAAAAAAAYIVgiToxwCAAAAAAAAAAAAAAAAAAAAAAAAAAAAPRdWkNvtPyqPdqlB8DIAAAAAAAAABjMp11sxfP1sAAAAAAAAAAAAAAAAxn5Kocd0PPYBAAAAAAAAAAAAAAAAAAAAAAAAAAAAC0NXrH6SlTW5VRK5kYAAAAAAAABTPWT1Uez19ZoKAAAAAAAAAAAAAAAAYzgptp9vqMAgAAAAAAAAAAAAAAAAAAAAAAAAAAABYiu9iKlmpVtalacmMAAAAAAB09cx656lGq/Sn3Svn6KAAAAAAAAAAAAAAAAAAYzgprqNvqMAgAAAAAAAAAAAAAAAAAAAAAAAAAAABYiu9iKlmpVtalacmMAAAABvq0PXzTJFR7IX00AAAAAAAAAAAAAAAAAAAAAYzgprqNvqMAgAAAAAAAAAAAAAAAAAAAAAAAAAAABYiu9iKlqOJHbUz1N0K75RuMgAH67yyOkcTd6M0FAAAAAAAAAAAAAAAAAAAAAAMZFPNBaOMMorSkItSkItSkItSkItSkItSkItSkItSkItSkItSkItSkItSkItSkItSkItSkItSkItSkItSkItSkItSkItSkItSkItSkItSkItSkItSkItSkItSkItSlkiyx/KTnXrFPn6ENwLd3jYqglzyRF0kSLKZ4/caAAAAAAAAAAAAAAAAAAAAAAAAAAAAAAAAAAAAAAAAAAAAAAAAAAAAAAAAAAAAAAAAAAAAAAAAAAAAAAAAAAAAAAAAAAAAAAAAAAAAAAAAAAAAAAAAAAAAAAAAAAAAAAAAAAAAAAAAAAAAAAAAAAAAAAAAAAAAAAAAAAAAAAAAAAAAAAAAAAAAAAAAAAAAAAAAAAAAAAAAAAAAAAAAAAAAAAAAAAAAAAAAAAAAAAAAAAAAAAAAAAAAAAAAAAAAAAAAAAAAAAAAAAAAAAAAAAAAAAAAAAAAAAAAAAAAAAAAAAAAAAAAAAAAAAAAAAAAAAAAAAAAAAAAAAAAAAAAAAAAAAAAAAAAAAAAAAAAAAAAAAAAAAAAAAAAAAAAAAAAAAAAAAAAAAAAAAAAAAAAAAAAAAAAAAAAAAAAAAAAAAAAAAAAAAAAAAAAAAAAAAAAAAAAAAAAAAAAAAAAAAAAAAAAAAAAAAAAAAAAAAAAAAAAAAAAAAAAAAAAAAAAAAAAAAAAAAAAAAAAAAAAAAAAAAAAAAAAAAAAAAAAAAAAAAAAAAAAAAAAAAAAAAAAAAAAAAAAAAAAAAAAAAAAAAAAAAAAAAAAAAAAAAAAAAAAAAAAAAAAAAAAAAAAAAAAAAAAAAAAAAAAAAAAAAAAAAAAAAAAAAAAAAAAAAAAAAAAAAAAAAAAAAAAAAAAAAAAAAAAAAAAAAAAAAAAAAAAAAAAAAAAAAAAAAAAAAAAAAAAAAAAAAAAAAAAAAAAAAAAAAAAAAAAAAAAAAAAAAAAAAAAAAAAAAAAAAAAAAAAAAAAAAAAAAAAAAAAAAAAAAAAAAAAAAAAAAAAAAAAAAAAAAAAAAAAAAAAAAAAAAAAAAAAAAAAAAAAAAAAAAAAAf/xABQEAABAwEDBAoNCgQGAgMBAAABAgMEBQAGERIhMVETFCJBUFNhcZLREBYjMDIzQEJSgZGhwRUgJENgYnJzseEHNWPwNkSCg5OyNMJFsNJU/9oACAEBAAE/Af8A7KnGy322hi4tCfxKwsur05vw50Yf7osbwUkf/Ixv+SwrtKVoqEX/AJRZuoRHfFyWFfhcBsFY6PtlLqMSAjKlSG2h95Wf2Wm38gNYpisPPnWdwnrtJvvVX8zOwxx91OUffZ+sVOT46fJUNWXgPdZRKvCJPPn+ZgNVmpMhg4svutn7iyLRr01mNomrcGp0BVol/wB1OaZCSr7zKsPcbQb2UidgkSNhWfMeGT79FkqChiM4+1lVvLTqVih13ZHuKbzq9eq1RvpUZhUmMREa+5nV7bLWtxwuOLUtZ0qUcT32BWKhTFfRZTiE+hpT7LUy/jK8G6iyWjxredPrGkWjymZbQdjuJcbOhSTiPtRUapEpccvS3QhO8N9XMLVi+MyflMxMqKwdR3auc73q8igVGXTH9liPqbVvjeVzjftRL5xppSxNAjSDmCsdwrqsDj9pNFrwXrYpeVHjYPS9Xmt8/VaZMkT5Kn5TqnXFb5+HktCvXJpRSxIyn4mrHdI5uq0KbHnxkvxnQ42rQR9oicLXlvcUlyDTF7rQ4+N7kT12xx0+T0msSqNK2aOrcnw2z4KxakVeNWIYfjq5FoOlB1H7QE4WvXejLLlOp7m50POpOn7o8qptSk0qYmTGXgoaU7yhqNqRV49YhJfYJx0LQdKDqP2fvfeMxUKp0Nzu6x3VY8waufyyj1Z+jTkyGc6dDje8sWgzWKhDbkx15TbgxH2dvHW00anFacDIc3LSeXXzCzji3XVuOKKlqOJUdJPlt1a6aTO2F5f0R47r7ivS67JOIx+zbzqGGVOuKCUIGUoneFq3VXKxU3JKsQ34LSPRT5fcut7ch7QfV3aONyT5yP2+zd+quW2UUtpW6c3bv4d4f3q4Ap852mz2ZbPhNnHDWN8WhyW5kRqQyrFt1OUn7MyX24sdx91WDbaSpR5LT5jlQnvy3fCdVjzahwDcOp5TbtNcVnR3Rrm3x9mb9VHYaY3CQd3IVir8I/fDgKlTlU2qR5Y0Nr3XKnf91kKC0BSTik5wfsxeudt28EjA4oZ7kn1affjwHc+fty77IUcVsHYlerR7vsvPkiHAfknQ0gr9gspRWoqUcVKOJ5+A7gy8ifJhk5nUbIOcfsfsvfWTsF3XEA53lpb+J/TgS7cnat4oS94uZB/1ZrD7LfxBe7lBY1qUs/p8eBGllp5Dg0oUFeyzastsKGhQx+y1/XMatHb9FnH2k8C0dzZaNDc9JlH6d8xGuy3W2hi4tKRrUcLO12ls+MqEYf7gNl3voiP88lX4UKNl34o6dCn1czVlX+pw8GPJV6gPjZX8QIvmwHzzrTY/xCb3qav/AJRYfxCRv01XqeHVZP8AEGP51PeH+4LJv/APhRJI6J+Nk36pKtIkJ52/3si+VFXpllP4mlWbvJR3fBqMf1qw/WzUuO/4p9pz8CwbY8N33VjeIjUyj48CDTa7Ksq7UA/0h2Lx1h2i09MhppDilOBGCjhvHqsz/EGUFd2gMqH3FkfraPfynOePZfZPMFD3WYvNR5HgVBkHUs5P62bksvDFt5tf4VA2xs9Oixxi9JZb/EsCz97KMx/nULOptJVaRf8AiIzR4bzvKohA+NpF/Kk54hiOyOYqNpF5KxJ8ZPdA1N7j9LOOLdVlOLUs61Kx76MxxGY8lo9ZqUTxE59A1ZeI99o99quz4wsvj76MP0tG/iCDmk0887TnwNo99KM94Ty2T/UbPwsxV6fJ8TNjr5A4LBQUMQQeaynEIGKlBPObP1ylxvGz4yeTLxPus/fekM+LU6+fuN9dpH8QVf5en+t1z4C0f+IMnL+kQGlJ/prIPvtSqzErDGyRXM48JCsyk8/CF9v8Rr/KRwILXW/wzA/L+J7F/P5G3+en9D8wZtHutsiyMCteH4j5RhYLUnwVKHMbElXhEnnNsMPmUqou0qoNymvNO7T6Sd8WjvtyWG3mlZTa0hSTycH35Rk19KvSZT8eBbuo2O7sBP8ART2L/qwpcZOt/wD9TwLcWqbLFcprh3bO7b5UnT7D+vB9/wBrCdDd9JtSfYf34FgNbDT47XoNJT7ux/EFzcwGuVav0HAtKnrplTYlp+rVuhrTvizS0utJcQcUKAKTrHB1/wBjKpsV/i3sn2j9uBILG2ahGYH1jqU++wzDsX9fy6yw0Pq2P1P7cDXHqe2qYYSz3SNo5UHRwdemLtu7stIGKkJ2Qf6c/Alz4u2byMEjFLIU4f0H62Gix0WvPI2zeOYsHMlexj/Tm4GuY8pu8rKRocQtKvZj8LDRwa4gOIKFZ0qGBtMjKhzn4ytLThRwHcCHgxKmkeGoNp5hnPYlPpjRXX1+C2grPqstxTq1OK8JZyj6+BriUxbk5yorTg22koQdajp9368H35g7XqyJaRuJCc/4h+2HAQznNptQ4PybRo0U+GlG7/Ec57F9Zm1qCtoHdyFBsc2k8DXbuwurKEmSS3DGrS5zcnLaPHaisoZZQlDaBglKdA4PvVTflGhupQMXWu6o9WkezgK6lN+Ua61lDFpjuq/VoHtsOxfqmvyYjU1tRUiMDlt8h87gW7dENaqGSvERms7qv/X12abQ00ltCQlKRgAN4cIEY2vLSvkqsuoSO4O90a5tXq4BufSjT6Ol1xOD0nuiuQbw/vX2XEJWhSVAFJGBB37V6lmkVZ2MPFHdtHWk/wB4cBpSVqCUjFROAGu1BpSaRS2o+bZMMp061b/CV6aP8q0pWxpxks7trl1j18AXXo/ytVU7IPo7O7c5dQ9dhmHzL808P0tMxI3cY5/wn98OA7l0/blc2ZYxbjJy/wDVvf3yWGjhO+VE2jMM9hP0d9W7w8xf7+XMtOPvIZaSVOLOSlI3zag0lFHpjccYFzwnVa1fNmxkzIb8dXgutlHtspJQooV4STgeArixNhoqpBG6kOE+oZh8eFJkRmbFcjPoym3BgoWrFJeo9QXGdzp0tr9NPltzbv7WQmpSkd2cHcknzU6+c/OOi1fY2veCc2Mw2UkevP8AHgKgsbXoUFrUynH15+Fa3RmazBLLm5WM7bnom0yG/AluRpKMh1Bzj4jk8rundoznEz5iPoyTi2g/WHXzWAw+cdFr5JybzPn0kIPu4BwxzWYTkMNp1JA4Wr9AZrUbA4NyEeLd+B5LTIb8CUuNJbLbqNI8puzddVTUmXMSUwx4Kd939rIQlCEpSkJCRgAN7vF9v8SK/JR8eAU+EOcWT4I4XrNCjVqPkPDJcT4t0aU/tyWqlJl0eTsMpGHorHgr5vJ7uXPU8Uy6m3g3pQwdKvxcnJZKAhIAAAGYAd4Oi18F5d5pP3QhPu4BOi0VeyRGV+khJ93DE2DHnxlMSWkuNq3jauXQlU4qehhUiLpzeGjn1+SQoEqovhiIypxfJoHOd61BulHpmTIk5L8vTj5qObrth3k6LVt/bNcmu44gvKw9WbgK7r+2LvwXP6IHszfDhnC1ZulBqZW60na0k+egZlc4tU6BUKSomQzi1vOozp/byBppx9wNsoU44rQlIxJtSbjSH8l2pK2FvikHdnnO9aFAi0+OGYrKWkDeTv8APr73MkCLDffVobbK/YLFRUco6TnPAVxJOy0RbOOdh0j1HP18NlIUCCMQdNqlc6mTiVtIMV0+c1oPqtPuZVYhJZQmU3rbO69hs604wsodbU2seasYHvcKi1Ko/wDixHFJ9MjBPtNqfcEnBdRkf7bP/wCrQKVCprWREjoa1kaTznvt9Je1rvuN47p8hsfqf08npV2ajVgHG2w0wfrXcwPNrsz/AA/jgd3mvKP3EgC0j+H6Mk7WnLCt4OoxHutU6JPpC/pTO4OhxOdJ9febhzNiqr8UnM+3iOdP7E8O4Y2fiR5SMiQyh1OpacbSrl0eRjkMrYP9JfwNn/4ff/zTzzOt9Vnri1ZHi1RneZZH6iy7n1xP+TCvwupt2rVzH+Xr6SeuwunXD/kFetaeuzdy60vwmWUfidHwszcCarx0thA+6Cq0e4MBBxfkSHuQYIFod3qTBzsQWgr0lDKPvtkjv9+52zVNmGk7lhGUr8Sv28murdfbmRUJ7fcNLbZ8/lPJYJCQABo7L8dqSytp5sONrGCkq0G15KEaLOAbxMV3O2TvcneKZM+T6nGlcW4Cebf91kkKSCDiPsFh5I64lppa1nBKRiTyWny1T6g/LVpdWVcw3vd3xLDyxihlxQ1pQTYpUk4KBB1EYd4urdr5TdEyWg7TSdynjT1WSkJGA0WmzWIEVyRIcCG0DObVC+tTkvnaqhGZ3gEgq9ZtRr7S0SUNVIpcZUcNlycFI5eUWBxFr1QRNoEkZOK2k7KjnH7Y95unP29QWMpWLjPcl+rR7sPstfSobToimUnBySdjHNv/AN8ve6RSJVZl7BHTgBnW4dCBal3WplNSDsIee410Yn1DesEgaLSYMaY2USWG3U6lpxtXrl7EhcmlBRAzqjk49Hq+ddq7y6zJ2V0FMNs7s+mfRFmmkMtpbbSEoSMEpGgC0mQ1FjuPPOBDaBipR3rXgr7tbl76IqPFt/E8vZpyVop0ZLvjA0kK58LVEgU6UVaNhXj7LDQO8XFqG16q5DUdzITm/EP2xtvfZQ6LXyqG3a6ppJxbjDYxz+d/fJ3pKVLUEpGKlHADltQ6U3SKa3HSO6aXVekrf7Em8dJhvFp6c0Fg4EDFWHstEnRpzWyxn23Ua0Gxz2vhd3YlLqkRG4JxfQN4+l1/MoNDerczIGKY6PGuauQctosRmHHbYYbCG0DBKRZxxLTalrUEpSMSTvWvNeNdYkbCwSISDufvnWezdO7BfU3UpyDsYOLLZ877x5LDNa+FQTDobjQV3WT3JI5N/wB3eY8hcSS1IaO7aUFp9VoklEyI1Ib8BxAUOFMRYqCdJA57LnxG/DlMJ53Bb5Ypo0z4v/KLIqkBw7ibGVzOiwUFDEEEclse/wCNnZTDPjXm0fiWBY1imjTUIv8AyiyapAVonRj/ALosiQy54DqFcygexiNfzapOTTaZJlq+qQSOU73vspSlrK1nFSjiTrPerrsh+8kJKtAXl+wY2Gi18qm7Ao4QyopckLyMobw3+xSaq/SJyZLGcaFo3ljVaBOZqENuTHVlNrHrHIbLSFoKVDEHSNdrz0A0iXszIO03TuPuH0ersUmlv1icmMwMN9a95A12ptOj0yE3GjpwQj2qOs2JwFr13lNQcVBhr+ipO7WPrT1dm6t2vlFxM6Yg7USdwk/WnqsAEjAaLTpzFPiLkyHAhtI9vILVqru1meZDm5QNy236Ke9XEqGzU52Eo7uOcU/hP748IY2m1eBTv/KltNn0ScT7LTL/AENvNEjOvnWrcDrtJvzVXvEpYYHInKPvs/X6tJ8bUH+ZKsn9LLcW6cXFrX+JRNsBqFsLYDVZiU/FVlMPONH7iyLQb6VWKQHlIlI1ODA+0WpV7adUiltStrvn6t3f5jbHvcydGgMbNKeQ03rUbVK/ucop0bH+q9/+bS6/VZ3j5ruT6KDkj3WO6OJznl7GA1WGbRZqoTI/iZb6PwuGzF7a1H/zeyDU6gKtF/iA+MBKgoVytLw9xtDvhSJeAU/sCtTww9+izbqHUBaFpUk76TiOwtCXElKwCDpBFqrcqDLxcifRXfujFB9W96rVOizqS5hKZIRvOpzoPr7zdp9Ma8UJxWGBXke0YWFr3Upyp0juCSp5lWyJT6Q3x2btV5VGmZLhJiO+MT6P3hZtxLjaVoUFJUMQRvi02GzOiOR5CMttwYEWl3bmx64Ka2guFzO05vFOs82/ai0dijwUsNZ1aXHN9ZsTgLXuvLlbJTIS82h9wf8AUfHs3Zu6qsSNmfBTCbO6Ppn0R8bNtoabShCQlCRgANAFpUlqJHcffWENIGKlG1erjtal5WdEZHim/ieXvd1Z20K+wScG3e5L9ej34WGjg1biW0Fa1JSkaSTgBap32gRMURQZbn3Dgj29Vqheqq1DFOzbA2fMZ3Pv020kk6Tv97pl6KlSwG0ubMyPq3c+HMdItT7702SAmSFRF/fzp9osxJZkoy2HW3U60Kxtj8zG2Np14KZT8dnlt5Q8xBylewWqV/XV4op0cIHGO5z7LSpcic9s0p5brmtR73EnSoC8uLIcZP3FfC1Ov5IaIRPjpeTxje5V7NFqdWoFVT9FkJUrfQcyh6uw40h5BQtIUhWYpIxBtWrjoXlPUs5C9OwKO5PMd6z7DsZ5TL7am3E6UqGBHzwSDiDgRnBtd6sIq9NQ7iNnRuXk6lfvbTa+F3dhUupxEdzJ7ugeafS6+zc+8W1nE02WvuKj3FZ8w6uawNskZWO/bQLXtvJtJK4ENf0lQ7osfVjr7NAobtamZOdEdHjXNXIOW0WM1EjIYZQENoGCUizjiGmlOLUEpSMSTvC15bwqrEjYmSRDbO5Hpn0j3wEpOIzEaLUuWJ9MjSh9a2FHn3+C8bVm+MOn4tRsJUgZsEncJ5z1WqVZnVZeMp4lG82nMgeryBpxbK8tpa0K1oVhaPeisxhgmctY1OgK/Wzd+6ojw2oq/wDSR8bD+IEzfgx+mqyr/T8NzDjDnKjZ6+lZd8Fxlr8DfXaVVqhN/wDImPuDUV4D2eQJUpCwtCilQ0EHAi1JvtLilLVQTtlr0xmWOu0CpRamxssR5Lid/DSOcb3Yq1Dh1hjIkI3YG4dT4SbVihS6K9g8MtlXgPJGY9R+fSKo9R56ZLOcaFo3lp1WgTWKhEbkx1ZTaxiOqy0BaSlQBScxB37Xnu+aPL2VkEw3TuD6B9Hq7N0LxbdaECUv6S2Nwo/WJ6x2Lz3iTSI5YYIVMcG5+4PSNlrU44pxaipSjiSdJPYpFKfrE5MZjMNK17yBrtTqexTYSI0dOShHtJ1mxOANr13k+UXDCiK+iJO7UPrT1d+uJL2WjuRyc7DmbmOfr4KqFSi0yPs8p0IRva1HUBatXrl1TKZZxjxfQB3SvxH4cFRJkiDID8V1TTg302oV8WZuTHnBLEjQF6EL6jYG0iO1KZUy+hLjahgpKhmNrxXXdpRMmNlOQt/W3z8nL8+7VeVRpmQ4SYbp7oPRPpCza0uNpWhQUlQxBG/abDZnxHI0hOU0sYEWrFJeo89Ud3dJ0tuemnsNOuMOodaUUOIOKVDeNkX2Y+QdnUkbf8DYd4q9L8NpEh2XJckPrK3VnFSj2IMF+ozG4sdOLi/YBrNqNSGKPBSwznOlxZ0rOux0WvdeXLK6ZCXudD7id/7o+Pf7iStirTjBOZ5r3pz9fBNevHHozeThsspQ3DQPvOoWn1CTU5JkSnMte9qSNQHBt372uwMiLOynYuhK9Km+sWZebkMpdaWlbahilSTiDZSAtJSoAg5iDa891zT8ZsJJMXStA+q/b9Pn3PvFtdxNMlq7krMys+afR5rC1co7NZp6mHNysZ23MPAVaVFehSnIz6Mh1s4EfMYYdlSEMMoK3FnBKRv2u9QWqLDAzLkr8a58ByWOi17Ly7USqnw1/SVDuix9WNXP5BQpG1K7CexzB0A8xzfGw0cD3lvOilI2tGwXNI9TfKeXks664+6p11aluLOKlKOc8H3fvC9RXshWU7EUd23q5U8tokpmbHTIjrC2ljEKFlJChgRiDpFr03c+THNuREnaazuk8Uer590bxbfaEGUr6U2ncKP1ievsXpu8KtF2dgDbjQ3P3x6PVYgpJBBBGYg9hKStQSkEqJwAG/a613RSWBIkAGa4M/8ATGofHsXovEmksFiOQZrgzf0x6R+FlKUtZUolSicSTvnyDEp3Q0jPaI7s8Rl7jEBXtHA157yJpTW14+Cpqxm/pjWbLWpxalrUVKUcSSc5PCN36+7RJOBxXFcPdG/iOW0eQ1KYQ+ysLbWMUqG/Z5lD7SmnUhTaxgpJ3xa8VDXRZuCcVRXM7SvgeX5zTzkd5DzSyhxBxSobxtd2uN1qEFZkyEZnUfEcljnFr1XXXJdVPp7eU6fGtDzuUcthBlqd2IRJGyaMnYjja6t1zBUJ05I2z9W3p2Pl57C14a61RYZOAXIX4pvXynktIkOy5C331lbqzipR3/Irsu7NdyAo8Vk+zNwLeGtt0aFl5lSF5mkazr5rPvOSX1vPLK3FnFSjvnhO6t4DSpG1pKvobp0n6tWvm12ByhiNFqrTmarAXFe0K0K30neNpsN6nzHYr4wcbOB5eX51NqL9KnIlMHdJ0p3lDUbUypMVSEiTHVik6RvpOo/MrFWj0iCp9/OdCEY51nVafPfqU1cqQrFat7eSNQ8juSvLu40PQcWn38CTZjMCI7JfVktNpxJtVKm9Vp65T2bHMlPop3hwrcuvbKj5MkqxWgdwJ3x6Pq7F8qHt6Ft1lP0mOM+Hno/b59NqkukydmiuZJPhJPgq5xaBfyE4kCYy6wvWndp67dt1DycdvDmyFY/paoX8ioSpMBhx5fpOblI+Np9QlVOSX5TpcXvakjUB5JcM40Nwan1foOA9618q1t2btBlXcGDu8POX+3CzTq2HkOtKKXEHKSobxtQqsisU1EgZnBuXU+iqxGNr0Uj5JqqtjThGf3bfJrHl1wRhR5B1v/8AqOA7zVf5IpS1oP0h3cNc+v1W08L3Vq/yXVQlxWEeRghzkO8bC15aUKrSHG0J7u33Rrn1evy64qMKCVek+r4cBHRa9NV+VKyvIViwx3Nvl1n28M3SqvylR0hZxfY7mvl1H2di9lN+Tq24UDBmR3VHxHt8tue1sV2Yn38pftPAV56l8mUV5xJwdX3NvnP7cNXRqO0K2hClYNSO5K594+39exfWnbbohfSO6RlZY/Dv/wB8nlmfe02psfalMjR+LaSn3cAnRa/U8v1VuGk7iOjE/iP7YcNAkHEHA67Uad8pUmPK85aN1+LQbOtpeaU2sYoUCkjktMiqhTn4q9LSyjyu78Pb9diMYbnLy1cwz2GjgFxaW2lrWcEpGJNpspU6a9KVpdWV8N3AnZUeVCUfAIcTzHMf75exfmJsFaTIAzSEY+sZj8PK7g0/ASKiseF3Jv4/DgK9cval3ZRBwU4A0P8AV+2PDl0ZW1bxx8+CXsWj69HvAsNFr+xdkpDMgDOy77lZuryqLGdmymozIxccVkptT4TdPgsxWvAaTk46+XgL+IEnBmHFB8JSnD6s3x4cYeMeQ28nS2sLHqNm1hxCVjQoYi144+2bvTW9/Yyoc4z/AA8quXQjGa+UpKMHXU9yB81Ov18B36f2SvJb4pgD2knh2gPmRQYLh0llIPqzWeQHWlNnQoEWUnIWpJ804eUXVuyqetM6Yj6InOhB+tPV+tgMBwEdFr1ubJeeYfRIT7AOHbmObJdtgegpaffY2qjexVea36L6x7/JgMTgM5td65qnSmVVEZKNKY50n8XVZKQlIAGAG9wGdFq8rLr89X9dXDtw1Y0Nwei+r9B2LxJybx1Af1j5LS7uVKqkFpnY2eNdzD1a7UW68GkYOZOzSeNXvcw3rYYcC1Y41iaf66/+x4duB/KJP5/wHYvN/iWf+Z8B5FHiyJbuxxmXHV6kJxtAuLPfwVMcRGT6I3auq1OunSqeQoMbM6PPe3Xu0WwHA9U/m8389f8A2PDtwP5RJ/P+A7F5v8Sz/wAz4DyCm3fqVUwMeOQ1xrm5T+9qdcWGzguc4qSv0RuUdZsxFYitBqO0hpA81Aw4Kqn83m/nr/7Hh24H8ok/n/Adi83+JZ/5nwHfqVduo1bBTbWxMH61zMPVrtSrn02n4LcRtl4ec6Mw5k2CQODKp/N5v56/+x4duB/KJP5/wHYvP/iWf+Z8B3ymUedVnciKySkeE4rMlPrtR7nQIGS7I+lSBvrG5HMLAYcHVT+bzfz1/wDY8O3A/lEn8/4DsV26cWqlchk7BLOlfmr5xaoU2XS5GwS2ShXmneVzHvLba3XEttoUtajgEpGJNqLcjKyX6riNUdJ/7H4CzLDUdpLTSEobToSkYAcIVT+bzfz1/wDY8O3A/lEn8/4DszIEaoR1MSmg42reNq9dORS8qRFyn4u/6SOfWOX59KosysP7HGRuB4bqvBT/AHqtRbvQ6M13IFb58J5QznqHCJ0WrbKmK7ObWM+zKPqJx+PDtw2lIoji1DAOPEp5cAB8wjG14bnIkZcqmJCHtKmdCV82o2WhTa1IWkpUk4EKGBHzLvXVeqmTJlZTMTe9Jzm5OW0WIxDjpYjtpbaToSkcJ1+7MetYOhewykjDZMMQoajY3DqWOaRFI51dVu0Op8fE6Suq3aHU+PidJXVbtDqfHxOkrqt2h1Pj4nSV1W7Q6nx8TpK6rdodT4+J0ldVu0Op8fE6Suq3aHU+PidJXVbtDqfHxOkrqt2h1Pj4nSV1W7Q6nx8TpK6rdodT4+J0ldVu0Op8fE6Suq3aHU+PidJXVbtDqfHxOkrqt2h1Pj4nSV1W7Q6nx8TpK6rdodT4+J0ldVu0Op8fE6Suq3aHU+PidJXVbtDqfHxOkrqt2h1Pj4nSV1W7Q6nx8TpK6rdodT4+J0ldVu0Op8fE6Suq3aHU+PidJXVbtDqfHxOkrqt2h1Pj4nSV1W7Q6nx8TpK6rdodT4+J0ldVu0Op8fE6Suq3aHU+PidJXVbtDqfHxOkrqt2h1Pj4nSV1W7Q6nx8TpK6rdodT4+J0ldVu0Op8fE6Suq3aHU+PidJXVbtDqfHxOkrqt2h1Pj4nSV1W7Q6nx8TpK6rdodT4+J0ldVu0Op8fE6Suq3aHU+PidJXVbtDqfHxOkrqt2h1Pj4nSV1W7Q6nx8TpK6rdodT4+J0ldVu0Op8fE6Suq3aHU+PidJXVbtDqfHxOkrqt2h1Pj4nSV1W7Q6nx8TpK6rdodT4+J0ldVu0Op8fE6Suq3aHU+PidJXVbtDqfHxOkrqt2h1Pj4nSV1Wh3Be2YGbLQGxpSzjifWdFo8duKwhhlAQ2gZKUjeHzqvdqBWMVvAof41vMfXrtIuDMSo7XlsuD74KTZu4lTUd29GQPxE/C1MuRBiLDstZlLGhJGCPZv2SMkYDR/9o7//xAAsEAEAAQMCBgEEAwEBAQEAAAABEQAhMUFRUGFxgZGhsRAwQMEgYPDR4bDx/9oACAEBAAE/EP8A6VPITUULuHyqds+j/wB6Shl6KjRy7h81AXXH6ZoBNxuXoZ/uCwTTyNpIhdMnsUoG7F48z6VPBBg+dmeqnR1v+CBSMour/agDAHb63JhPSjQcyPwrSJGNO+yfdJgvVD9h7KcwaJXsrvNC3EJEZHv/AGtYJoNgMQl5R3NNEFiUpzeOwU6AJRTqt/uaRpRBJMyZ+rt4pls2Zet8BNFd+R07n9owYVmbYLrU/LFNo5Hp5NS3VVWV3/AxWzJhktksKucoF3yXPk250II/siwmtlnZ3Ocy8l94rLFJ8GwwHI/E0imkHacj53JzW2ijXNyTqJkTZ/sUCb9qdrBW7bk330ab0pKlVlVlX8e/nGP7jZ2S56pZUn+GnJw/2CBNOiwXNGq7bvYo/JVRaN14anxkoozI/wDUw6n9eUC9MkLw3fQ6M8HN/MUpa8Y2Ls7Oj3q+Mwcm4miNk/rqaJK/Jnc5sGtIh27KmVfzTDgxPGIHLTkvpQGGR13/AK241uCAlfBVwQSNFt3cvN/PRmpVl8Z3sOkUM/1rCTFNA+1J6c1dfz2C35bEnJJKhqQ3J0eZjt/WeSQhAS0vLNi6Mdgg7cBymiS6m10Ue7/WbVMEHDy+YOzWc8BQ1gINSx8mjvlAYRuPj+rrFSSdHny8uBMUk6pNlLn5Hj+rwY5NqonuKS8g7qmX3wOOAILuw/40/q7CR2JPwe1a8DaXjssPySlJ/VnBNg3QB8uCOvAB5of1RtpAXkk/1Zp61tz/AOI4JEibkUjzKpecftyblXIh5rlGIj3T6Lmgj0tawdv1tWS86/7Sv9bbnQQ8ggftqCydp/51cdPQSLByX/lQnMYoZz+S/FGgR5T9UyE90/5VHz/sGzUNWOtSOE41yqny/fBMFM0zanop+vpM/QIEpNs/9V3hPflQgLssV3U+qiRJqn6FRxTh+MahEtilgYy/ONT4l6p8hHupxdp+2FTgowoXdQ9VIiPLA9CkSuyqftoAsAdK1zUX+xF5+gCCDDY+SooCYn8EilgGc092fFCA+5H0HzUCOtCHmRR4y2JTws1HGOFTUSduR80bfDIPgk1OGiJge7Kugzab6P3QDvFJdLh9UkmQhpLs/ZZ4h/m7PBMigkxH0DA5zVhH00jSgObHeymUIYFj5qBZgnf8eDkHqV7gU+Kcnqc/NAwt0/gn62AbNk7Y5xQEAh1RJw9tAedk8EM062ZvJP7+m+83j/pwWOO7K5Vnc8clGOHNH27pLwRoxmGrXxYuhPocRupOh+x4LMmli1reKe8UdstcISPjhzhl0Tyb9jgjGpYLkifU0SAxpTYaJVICmy78Dg1wt4m3uPBk8cOtqAcar9BrW2OB9owUh8goRCsvShmg3RB8h4M3KGW5Y9isHDStEDdRIfVCujqdhQe5DwO1kq3sHdPH0VQFR2C/qmblKu6V+eDIAWYjEhuFjzoWOHPEN3MY3zJ2eBBACqwGrtUbAE2Z/YKdvoMebof+EjvRwVcFWwcbmzd2G5GzZUBw955cMXUPkkeK6Y4Ci7Klwy90PDQgv9LBICwhZ0gHlfRo4JBSCNaTQO/oS0Kv58AEAG3EIGnekiZFAsJZ7knSOAyIECl4fiv1+pGagJAkI8qJhYE7qDqM9nA0vlAylgDvQFEoHX+Bg5HErMEMGbPSPIUkKOfz0MrG8Wu9o8DRsQHT+Br82F14fEnngYBelkspg+ZaYOnEkkpIRsAsmehl1nl+cKNeUSwVKR2KZ89jByP4gWKKeRKHSEFzGH2cCE4JDv8AvJd+KA4eZtubI3HcqbDSsElnromj2/M7x1pIUsfdjPkeDrQQR/GxPKiLQHcrfASwTtegiIXdQl7eKxTLTEu/zHCanQpgMFoJomqyP5eBLlxauV8vKiBYH+WTpUaEHw/9cBO6t5oSSDxgHFUEhq2iVilPkfrJSSgu3E0R1HR/Jb6UpZT43uuDejQEAgBYA0P5uGmImgPAX/Gda0mIOLIJDTWKmHf/AHu+DTmCZzw3XyZPxi7BmktW7FsOzyOsYSjoAQAYA+xk6UMfVOof+8BSJMl6MjAvcPGMm9NN3HIm5Q3FcCQ5DDmdz8R+DhcB3wDrT5RWMv8AK5ebtFAMH2RKOVEPAi5KHo4DE2qQmVX1vcZIc0KS4iTe/qQ9aaCLEt+rnoYrX70xS3Yh/oAphK0xH0HZL0rRO0XW6yubQQfaTqFXcaRLLvUbvzwIXZRLon28bHCBAbicyr+2IQbm7eIodkuQoc73hay1oSXZpt9iSsEqBzaYJc6C8B4oiJ1fjV+jvUG4lhPXLvmgAg+4JUB7WF+CHf8AG1isVjpuh56sc6D7v+fS0tohYE7wTw0cIGh8/bY8mH7LRlF+dP8AhpRcOOIypwnEQj7qSOzLBPcKCFBsB9r9VKwHNf8AHOvk8PlKSBl2SjYAcxFFiBdbLwaQHWQ97go0sNweJfdIhD/7OVARBix95YFp5Ygn+MA8/i/NXwJQfxvU16ZjgAgDAUoZaES1NUiVIbJQUTN+YZbuWvqd/sMKwc5zgeTRgkBE1NH+gxUNqg2qPwgjvu0BK+CnVsg3GztA+3Fp0rl9YHkK5y7S8Nax/LLFIHLotBp06uuN6BiAIAwFSpiJldANVwFPM+h5G6DfkR3og+2BM1BbctNXqROVZsCtrr5g+xZslqt4C70xl3X9WBDpQN9b8QfbQgDBXnHddAzRDLJRSeDsO9CxIDAWCkiPQeE4oZVmQI1U3ers6fyshVGyGp8uhzaEyomAYA2pUm8SCpoSLM/7XotvNNxOVS1XczAz7qHiKS2nWu2PsWA55cZzzB2KGQ/1RQmtMtbDmvMH2inyDapgPNG0YEXLl0MHIpQy1frsMWzBiiamxFYdnUeTQh/ypo7QbNpNnwb6v8AM+CZh7Fptmi5P0g/bu60kHD8ALqu1YjVMJaW2xpnOPoQUQ/MwGzQ1zjIg/ujMAXV5XfQs7n2YqjRzUx3x3p5R6ZpMfricm5QmEaOkzdRUlIG1+WlEC/3vUS5A391z7wpKA4T70lQcI9K/wvG7SEAT/eaXjpH/AHr/AAfmzU2rkPP8YiIFPRHeFPqUdlGV8v2h7FyHnD2FYOlXnyNCYsHRSCebXS1NxqNjUrns6NFvlicmoaI2ShgHhCQORNqdLJl3Vct21tPotQNyTqV+jVpExLrkZTVaJGSxrRHLZuHQ5Xy3xH1cAWawOvK53bYmoyQMG1T6jLlWgaroUHye6k/cuV36faKZ4IvP9ew4hDcox6yL0F/VSekTHtn0KWTRc/mUeqkJI7F4hTxI3X5Rr/8AIqERB4qbIe1BB3D8C0GAf8T+4amS+BAF4X08qhufaUMtKiy2sdgyvIqEQRQkB5gZ8p0phuH/AJOHunIMmtz7qDY8UoQh7VBiITCWpoYPEM8TRwW24O8D7p0P1Y/Ye6lhe00z0T7VcJMFTuWqRwlCBaAETmNT9XvEg5/6bVNqWPEOh5MP2VNE0rib5pSsFYSDGYEDnFzpGtJC57/R+hgzSwBuamp0KDJB+RLiO1f8NiJNkbjvTTAsI39p6O5Qez3hGDLsbGhUg67Uz3R+d2+Xbf6hYMcTvG27TGWgDAHgFgDQpeu2LB++mtHkIorg9y9FuoR9q+/WZtGZ6UKyc8NKScnA3VxUDzYmAebz2NS1z7s55PNKqlSVMr1ftQOb8qKVjOkbfsI5Uii2ct5Yu4VL+cGPqobnmpN/pJvUNyoRM2oAc3S5XPcUDgUR9QLB3XpTxC30cgwHIigj7OlXqjLID1we5WK0Wyc1XdoqcFifK7v3LVI6lGeiFA2RzQQ2R5hejbpS6fj/AHDn/MEpADImEqBoARvBnpkeNKSGam2ug2TSbPg31fqhYRm2Vz5nGzyakKWlBBAxg/xUlEK1snOYOc8F8pSz9B5mxAw05j0X6lvcRYP9rrTq/vwBleVXeGPZ2D4NDm/cEPKFGiXGlgnoSEDyPC0GtQWSVdnteUupUeQZ8OjPVl/AHBesfkoaQ/8ApRPujg31Xvigy46BSlN6P7AqWCHbnympAcZZ4EHqgAsR993Fy8jklymIWS11enfDzo5i8KF2S661kSpIhUAH5OpybUZaiGOm/A9p/nuT2YkXXPZ0aFvLmEdUaI2Sg6IgSBIRNSkrw6mop+WpzPqk5XvuG/KzuX3oZJqdFU5No+DV5FIgo/KMq6r9BocjJ1K56Bq1FvWXqk1WicoATdpdX0sP6uN2+33Umr0jwTg4e+FFYtIJnvAtPyOphPI+FutYxwnBptsmyYTk2qfKxIkdXxNtnSpOVX/JiBQuqZTfl7tnlu/yeCRDfQA3NTU6FCgI/IG4jtR096Rsjojcam/SYkElnkmE0e30NrFmEMJQ5uMEkD/03m3Ot6GuH9GxofSZvMvVJoFT9qxUalbGxoUoTrXNqVlq227tvQQfezeeDdoemhc4QdilYSDRf/R03pSCWGPAB/nhnXFOpEkiH88nJptRiBRAOo0UAkCRHImpTDTYaXmP97MfytwtK2dydzjZtrSk2pRhWcdzmOE26UgpF3pNxLjr/AxTybp/2amICIGXTaHtvShO1WqoD82h3ng5p+Bh11dJ+qWg2twbBTjNKbi+TZ3NsoLRNF3Xh4y+aW79W4w9b1L5wueTsmppSMwkQkR0aVUoIEy6dejpjb+d5e+dy/XXcvvQyTTA7lGvLnu3trTlgQIRMib/AEC6oCVNgDVrmRwBfdu7aUsFSlM6xdDfZ3wU68S8qZV1X8AbyF1LlCcyD9h/fBdKF3DhuL7tjvjKUOT5GVdXiMdTkTc/W9ltqJlVmQNJ5yTImRq42Vd4NW2ey+/8iBVdhDCUpIcHo6c56ZKFijyaCi9vXca5zmexKzdbRFWMZcSHdpP0c6EEUrxaI5a7A94pJk2Lr9HLT8GJtTupQLvf04KrIGveouTXexrSRfv3TXiYlrepm082jvvJggokRkShngpIkeHmeySsIPTA0HJLn8r64hm7zyn0w6VH6cO82Wie8/XFKtJZw0Y/boVNr9hgYDQP/fwkmlVZ/ZP3wSYEBs8g3VsG7TLOq5CwfvdV4q8tlFXPMt8jlbT6QctCRfInNyO5Qz/KQeAXQ7anXJpQd3k5ekWeHrSF9th6lNGiT66MvVKfhAbdgA/z+IqeI3deBuVOC18lbG9TDrPFiiryAMjUVdoXDns5OTUSLd61sCHF/pcck+xLu/jIgyLHA20GCeyL9q/WKVUqq5Vu8XVoVKbTetYeS0p7UbRkSLxPgk8VqiImjp+YsU2/HwD9cCUKmTcETaD7h4DjCKRUt8F1uA9/sNRNGSyICwr6ruifmJNKhzI7sejgSR+82J5e0nsUY6cZWOmS4E+qyhiri9tZVY+IaYfy4UglYOdHBQs9QT7ngKhNYhIR5749jxoEoEQaJho5OzjsLPkaMa2WqEfTWbzzuDZ7kPf8uVJReXfAd6xLnXgMyRdsBL6KQ1XE6C2OxBxu5am/8FwfoGNjpj/YflueiEyELO8OzRY4C/csSoeOEMYDm4TQYOlDZSj0Fez8pGX4HAuryC7yKJ6xG5quay9+BaVEeQh7XHE2hk5g/qkpkjckkq3cjxbo5t+Q1iYY91zyPw60EEcBcNJL2guaH644kkb0z0pHMS+KM2VvcT90wKFGdGP1+PmlfiQsQOU2/wDGJowgi3AnD6U81IP0F/3jrq6b0G/uhjrUWkHsP4zEKiABKroUtcY8o7DydYxR5gAAgDYOB56kbUM7MfrjrvuEd1pxWRs3kH9/iaLoZp0qZJj5M9nmroCLkSvF1Z50DDgjikey8dz2FTivX/hQ5r1zOsY71Ns7vwJZ5aYbeDiHlg8UFjpwZxx6Z7CpxXr/AL9ouhSaobp4Vv2DUPEuzk9vYnSseEgn1QRwhxx6Z7CpxXr/ALtotS2oxqnJnstzoB6MxFvAd5aBgxgNqxwpxx6Z7CpxXp/uUqSQzut3IloEIibV/b1Z7UIgxw1xx6Z7D6TsUyAqRB6iS/WltxtU98D87n2ZEAEI2AzTyYWbl2f8a0ZNIOByCgjhzjj0z2H1rxTk8O45HmUZF7NknyHgdwz/ADtMuBEHm6vJfpQRNIK6R8B3mggg4goTtT4A3JlAfA46uxbJgg+R8fwARTCmkdxq6eRh5U/fixBkRw/wVmVlBAfH/wDDegUjEQH/AF5t6LcRSSKcXiY2gOsaJcobNGKU9uNuPHjx48ePHjx48ePHjx48ePHjx48ePHjx48ePHjx48ePHjx48ePHjx48ePHjx48ePHjxcnqQo9oA6oaK0cSwfxSSKtC6CJTQGB181sY89CkqPz67J8FHM9MHPt3McqESAWAIg/wDqO//EACARAQACAQUAAwEAAAAAAAAAAAEAEUAQIDAxUAISIZD/2gAIAQIBAT8A/p1cuXLly/XuXwD6i8dwfRXlGoPnvONQ85wB816wTzXCPMcI4bly/T+Olz7T7S5fBcufafaXByXvCI9YY5D3hEesMyHCI4YZLgGiYQZSYBo4RlpzBsfNTkDa9+cnCEDHM+pUqVKlSt7xhAlbR8x3VE2H5FhHZ8fMdpFgxNAiwL0dpkXLl63B23Fl62wZcqVsGJCdyouh+RdxjXL4bZbLeEZ3E2ESDL0CLvMVcch+xNRncTQIuYuSQ/YmozuVFzFyyd7LluauYMTwHNPBc4jyhhOd8Y8phOcR4wlYbnHceGpWK95x3HfWQ95xomwIGTUqVKlSpUqVKlSpUqVKlSpUqVKlSpUqVKlSoGqSoH9d/wD/xAAUEQEAAAAAAAAAAAAAAAAAAACw/9oACAEDAQE/AHBP/9k=;textShadow=1;" vertex="1" parent="1">
          <mxGeometry x="1711" y="-1037.5" width="83" height="83" as="geometry" />
        </mxCell>
        <mxCell id="CrdlNod6DZvfMOvalICT-91" value="" style="endArrow=classic;startArrow=classic;html=1;rounded=0;exitX=0.5;exitY=0;exitDx=0;exitDy=0;entryX=0;entryY=0.5;entryDx=0;entryDy=0;textShadow=1;" edge="1" parent="1" source="CrdlNod6DZvfMOvalICT-68" target="CrdlNod6DZvfMOvalICT-44">
          <mxGeometry width="50" height="50" relative="1" as="geometry">
            <mxPoint x="542" y="-922" as="sourcePoint" />
            <mxPoint x="660" y="-1034" as="targetPoint" />
            <Array as="points">
              <mxPoint x="535" y="-1004" />
            </Array>
          </mxGeometry>
        </mxCell>
        <mxCell id="CrdlNod6DZvfMOvalICT-92" value="LOGIN&lt;div&gt;SUCCESSFUL&lt;/div&gt;" style="text;html=1;align=center;verticalAlign=middle;resizable=0;points=[];autosize=1;strokeColor=none;fillColor=none;textShadow=1;" vertex="1" parent="1">
          <mxGeometry x="1083" y="-674" width="99" height="41" as="geometry" />
        </mxCell>
        <mxCell id="CrdlNod6DZvfMOvalICT-94" value="" style="endArrow=classic;html=1;rounded=0;exitX=0.5;exitY=0;exitDx=0;exitDy=0;textShadow=1;" edge="1" parent="1" source="CrdlNod6DZvfMOvalICT-20">
          <mxGeometry width="50" height="50" relative="1" as="geometry">
            <mxPoint x="1513" y="-710" as="sourcePoint" />
            <mxPoint x="1315" y="-814" as="targetPoint" />
            <Array as="points">
              <mxPoint x="1617" y="-821" />
            </Array>
          </mxGeometry>
        </mxCell>
      </root>
    </mxGraphModel>
  </diagram>
</mxfile>
